<?xml version="1.0" standalone="no"?>
<!DOCTYPE svg PUBLIC "-//W3C//DTD SVG 20010904//EN"
 "http://www.w3.org/TR/2001/REC-SVG-20010904/DTD/svg10.dtd">
<svg version="1.0" xmlns="http://www.w3.org/2000/svg"
 width="1280.000000pt" height="1280.000000pt" viewBox="0 0 1280.000000 1280.000000"
 preserveAspectRatio="xMidYMid meet">
<metadata>
Created by potrace 1.15, written by Peter Selinger 2001-2017
</metadata>
<g transform="translate(0.000000,1280.000000) scale(0.100000,-0.100000)"
fill="#000000" stroke="none">
<path d="M8160 12781 c-8 -16 -15 -18 -41 -11 -19 6 -40 5 -57 -2 -15 -5 -54
-12 -88 -13 -33 -2 -78 -10 -98 -19 -21 -9 -53 -16 -71 -16 -18 0 -44 -9 -58
-20 -14 -11 -35 -20 -47 -20 -12 0 -33 9 -47 20 -21 17 -41 20 -112 20 -84 0
-88 -1 -116 -30 l-29 -30 30 -30 c16 -16 35 -30 42 -30 18 0 15 -24 -8 -53
-12 -15 -20 -40 -20 -65 0 -37 -22 -72 -46 -72 -14 0 -54 -45 -87 -97 -24 -38
-27 -52 -27 -130 0 -75 -3 -90 -21 -109 -17 -18 -25 -20 -38 -12 -13 8 -24 6
-45 -7 -36 -24 -56 -65 -56 -115 0 -26 -8 -51 -21 -70 -19 -24 -20 -33 -10
-61 16 -47 15 -49 -28 -49 -23 0 -48 -8 -64 -20 -33 -26 -37 -25 -37 8 0 15
-5 34 -10 42 -8 13 -12 12 -25 -7 -9 -13 -23 -23 -31 -23 -24 0 -19 -118 6
-145 26 -28 17 -54 -39 -119 -23 -26 -41 -51 -41 -56 0 -5 -14 -25 -31 -45
-28 -32 -36 -35 -84 -35 -46 0 -58 -4 -83 -30 -42 -42 -62 -40 -62 8 0 20 -5
44 -10 52 -8 12 -14 10 -40 -15 l-30 -29 0 78 0 77 -27 -3 c-40 -4 -51 -54
-52 -230 -1 -142 0 -148 19 -148 18 0 20 7 20 60 0 70 9 74 59 29 26 -25 31
-33 20 -40 -8 -5 -17 -9 -21 -9 -4 0 -15 -25 -23 -55 -9 -30 -19 -55 -23 -55
-3 0 -16 10 -29 22 l-23 21 0 -41 c0 -28 5 -44 18 -52 16 -10 16 -10 0 -20
-13 -8 -18 -24 -18 -55 l0 -44 -137 -5 c-76 -3 -154 -5 -173 -4 -127 4 -409 2
-415 -3 -3 -4 14 -26 39 -50 l44 -44 -14 -80 c-12 -64 -12 -90 -3 -129 10 -42
10 -50 -5 -58 -12 -7 -16 -23 -16 -63 0 -46 -3 -55 -18 -55 -10 0 -22 12 -29
30 -6 16 -25 38 -42 47 -43 25 -43 67 -1 82 l30 10 0 85 0 85 -35 28 c-42 34
-47 69 -10 83 17 6 23 14 18 26 -9 24 -192 17 -220 -8 -24 -22 -89 -24 -97 -3
-4 11 -21 15 -61 15 -42 0 -55 -3 -55 -15 0 -8 -7 -15 -15 -15 -8 0 -24 -9
-34 -19 -19 -19 -20 -19 -58 1 -58 30 -93 68 -93 99 0 19 -10 34 -34 53 -19
14 -41 26 -49 26 -8 0 -22 9 -32 20 -13 14 -31 20 -60 20 -29 0 -47 6 -60 20
-10 11 -24 20 -32 20 -7 0 -13 8 -13 18 0 15 6 18 29 14 23 -3 33 2 46 22 13
20 26 26 51 26 39 0 48 24 13 35 -37 12 -222 -16 -245 -36 -27 -25 -42 -24
-92 8 l-41 27 -3 80 -3 81 -52 3 c-49 3 -53 1 -68 -27 -19 -37 -52 -41 -64 -8
-7 17 -4 26 11 38 23 18 17 39 -11 39 -11 0 -21 9 -24 21 -5 19 -12 21 -56 18
l-51 -4 0 37 c0 35 -2 38 -36 44 -54 10 -230 -1 -501 -32 l-63 -7 0 27 c0 21
-4 26 -17 22 -66 -20 -110 -24 -149 -14 -48 13 -74 6 -74 -21 0 -10 -11 -26
-24 -35 -14 -8 -27 -24 -30 -34 -4 -10 -21 -26 -40 -34 -21 -10 -43 -33 -58
-60 -16 -31 -30 -44 -48 -46 -101 -10 -155 -36 -143 -69 4 -10 -20 -13 -97
-13 l-102 0 9 -32 c8 -34 8 -117 -1 -125 -10 -11 -61 15 -64 32 -2 10 -19 33
-37 51 l-34 33 -25 -30 c-39 -45 -33 -77 19 -119 60 -47 66 -72 26 -109 -17
-16 -31 -36 -31 -45 0 -8 -19 -25 -42 -37 -38 -19 -47 -20 -94 -10 -28 7 -55
11 -60 9 -5 -1 -24 13 -42 31 l-33 34 -76 -7 c-42 -4 -106 -14 -142 -22 -36
-8 -76 -17 -88 -19 -12 -3 -36 -17 -54 -32 -21 -18 -34 -24 -37 -15 -2 6 -11
12 -21 12 -22 0 -41 19 -41 42 0 14 -8 18 -34 18 -30 0 -35 -4 -41 -30 -6 -29
-9 -30 -60 -30 -45 0 -55 3 -60 20 -4 11 -15 20 -27 20 -19 0 -20 -5 -16 -51
4 -41 12 -57 41 -87 35 -36 36 -38 17 -50 -16 -10 -20 -23 -20 -71 0 -50 -3
-59 -20 -64 -17 -4 -20 -14 -20 -57 0 -32 -10 -76 -26 -116 -17 -44 -24 -73
-19 -94 5 -22 1 -34 -15 -50 -11 -11 -23 -34 -27 -50 -3 -16 -14 -32 -24 -35
-10 -3 -32 -22 -50 -42 -31 -36 -31 -38 -26 -109 6 -61 4 -74 -12 -88 -23 -21
-31 -20 -31 3 0 11 -9 21 -22 25 -21 6 -21 7 -6 17 15 8 18 24 18 84 l0 75
-35 0 c-24 0 -35 5 -35 15 0 11 -11 15 -40 15 -36 0 -40 -3 -40 -24 0 -52 22
-181 32 -187 6 -4 2 -18 -12 -36 -15 -21 -23 -50 -27 -94 -3 -35 -14 -81 -24
-101 -20 -39 -17 -68 7 -68 9 0 14 12 14 34 0 20 7 39 18 47 15 13 16 12 3 -3
-10 -13 -12 -42 -9 -108 4 -82 2 -90 -14 -90 -10 0 -18 4 -18 8 0 11 -104 40
-172 48 -44 5 -62 2 -96 -15 -28 -14 -42 -28 -42 -41 0 -22 -20 -26 -38 -8 -8
8 -22 6 -54 -10 -24 -11 -51 -23 -60 -26 -9 -3 -24 -20 -33 -39 -10 -21 -40
-52 -74 -75 -75 -53 -85 -66 -72 -89 7 -14 5 -23 -10 -39 -11 -11 -30 -41 -42
-65 -16 -33 -29 -45 -49 -47 -23 -3 -27 1 -33 37 -4 24 -12 41 -20 41 -8 0
-16 17 -20 40 -4 25 -12 40 -21 40 -8 0 -17 7 -20 15 -4 9 -19 15 -40 15 l-34
0 0 -115 c0 -108 1 -115 20 -115 17 0 20 -7 20 -39 0 -30 4 -40 20 -44 18 -5
20 -14 20 -101 0 -90 1 -96 20 -96 20 0 21 -5 18 -102 l-3 -103 -38 -9 -37
-10 0 -84 c0 -75 -2 -84 -20 -89 -26 -7 -27 -52 -1 -84 10 -13 24 -41 30 -62
10 -29 16 -35 26 -27 20 16 60 -6 91 -52 15 -21 25 -40 23 -42 -12 -11 -70
-36 -83 -36 -8 0 -35 -12 -60 -27 l-45 -28 -1 -154 c0 -152 0 -154 29 -205 21
-36 27 -56 21 -66 -6 -8 -10 -34 -10 -58 0 -39 -2 -43 -20 -37 -16 5 -20 2
-20 -19 0 -16 7 -27 19 -31 12 -3 18 -12 15 -20 -3 -8 -12 -11 -20 -8 -11 4
-14 -5 -14 -41 0 -34 -4 -46 -15 -46 -9 0 -37 -33 -63 -73 -27 -41 -58 -84
-70 -97 -12 -13 -22 -27 -22 -31 0 -4 -12 -14 -26 -24 -18 -12 -29 -13 -38 -6
-9 8 -20 3 -41 -19 -37 -38 -36 -75 7 -204 29 -86 37 -101 61 -110 26 -10 27
-14 21 -49 -5 -31 -2 -43 14 -60 11 -12 45 -63 76 -113 31 -51 63 -94 71 -98
8 -3 15 -17 15 -31 0 -14 5 -25 10 -25 6 0 14 -8 18 -17 22 -50 49 -82 72 -85
23 -3 25 -8 28 -60 l3 -58 74 0 74 0 21 -46 c24 -56 25 -68 5 -84 -12 -10 -15
-36 -15 -117 0 -91 3 -110 25 -154 14 -27 23 -54 19 -60 -3 -6 3 -17 15 -25
12 -8 21 -24 21 -35 0 -26 40 -79 59 -79 9 0 22 -9 28 -19 7 -11 25 -21 40
-23 41 -4 45 -45 6 -53 -15 -3 -44 -10 -64 -15 -20 -6 -53 -10 -73 -10 l-36 0
0 -160 0 -160 178 -2 177 -3 3 -54 c2 -41 8 -58 23 -69 13 -9 18 -23 17 -43
-2 -27 -5 -29 -40 -29 l-38 0 0 -160 c0 -131 3 -160 14 -160 10 0 16 19 21 60
6 50 10 60 26 60 12 0 19 -7 19 -18 0 -18 56 -80 64 -71 25 29 54 179 56 287
0 77 17 35 30 -77 12 -108 13 -109 56 -157 28 -30 41 -51 35 -58 -5 -6 -11
-24 -13 -41 -3 -26 -8 -30 -35 -33 -22 -2 -41 -14 -59 -35 l-27 -32 64 -3 c44
-2 72 -9 89 -22 l25 -19 -23 -46 c-27 -56 -28 -104 -3 -137 11 -13 23 -38 27
-54 4 -16 13 -38 20 -49 8 -11 14 -40 14 -65 0 -26 11 -80 25 -120 21 -61 34
-83 76 -122 43 -40 57 -48 90 -48 38 0 39 -1 39 -33 0 -19 3 -37 6 -40 4 -4
30 12 58 34 l51 41 2 -38 c2 -22 5 -67 9 -101 l5 -62 37 -3 c36 -3 37 -5 40
-44 l3 -41 37 6 c34 6 37 9 40 44 3 34 6 37 33 37 16 0 38 -9 49 -20 19 -19
19 -22 5 -56 -20 -48 -19 -52 10 -66 22 -10 25 -17 25 -68 0 -49 4 -60 29 -84
27 -26 31 -27 104 -20 l75 7 -8 -42 c-7 -39 -5 -43 19 -56 18 -9 32 -10 42 -4
8 5 33 9 57 9 39 0 42 -2 42 -28 0 -21 -15 -43 -60 -87 l-60 -59 0 -74 c0 -65
2 -73 17 -70 13 2 19 14 21 40 l3 37 57 3 c54 3 57 5 60 30 4 32 6 32 51 17
22 -8 36 -8 43 -1 17 17 85 -30 147 -104 48 -56 57 -71 48 -85 -13 -21 -38
-29 -89 -29 -26 0 -38 -5 -38 -14 0 -15 21 -26 52 -26 14 0 18 -5 14 -15 -4
-13 7 -15 73 -15 78 0 79 0 89 29 10 29 11 29 59 19 66 -14 77 -24 52 -49 -16
-16 -19 -33 -19 -102 0 -81 1 -84 34 -116 39 -38 46 -30 46 50 0 45 2 49 24
49 15 0 26 -7 29 -19 2 -11 17 -22 34 -25 l29 -7 -9 -70 c-7 -57 -6 -79 7
-113 8 -22 13 -51 10 -64 -4 -15 0 -30 12 -43 10 -12 30 -40 44 -64 48 -82 84
-124 107 -125 12 0 24 -8 28 -19 3 -11 45 -49 93 -85 48 -35 109 -87 136 -115
27 -28 62 -53 78 -56 15 -4 52 -24 80 -46 46 -34 59 -39 108 -39 31 0 64 -6
75 -14 11 -7 56 -16 100 -19 44 -4 107 -11 140 -16 33 -5 81 -13 108 -17 36
-5 47 -11 47 -24 0 -13 -11 -20 -40 -25 l-40 -7 0 -54 0 -54 33 0 c45 0 87 43
87 91 0 23 10 45 30 69 l30 35 25 -31 c13 -18 48 -47 77 -65 49 -32 58 -34
136 -33 49 0 87 5 94 12 7 7 29 12 50 12 54 0 65 -25 31 -76 -15 -21 -33 -43
-42 -48 -8 -5 -25 -20 -38 -34 -22 -24 -24 -24 -165 -21 l-143 4 -3 -57 -3
-56 68 -4 c56 -3 71 -1 85 14 14 16 22 17 68 7 29 -6 65 -9 81 -5 15 3 31 1
34 -4 9 -15 107 -22 154 -12 65 15 71 10 71 -65 0 -42 5 -69 14 -79 19 -18 26
-18 26 1 0 18 2 18 35 3 20 -9 31 -8 50 2 22 12 30 9 94 -29 38 -22 74 -41 80
-41 17 0 33 -50 26 -82 l-7 -28 106 0 c104 0 125 7 89 30 -20 13 -21 13 57
-15 23 -9 41 -10 52 -4 12 6 18 6 18 -1 0 -6 61 -10 176 -10 169 0 176 1 181
21 3 12 11 18 19 15 8 -3 20 -9 28 -12 9 -3 17 3 21 18 18 59 40 98 53 93 7
-3 20 -5 29 -5 11 0 14 -11 12 -47 l-3 -48 154 -3 c126 -2 157 -5 167 -18 7
-10 23 -14 47 -12 l35 3 -45 49 c-54 57 -49 64 39 62 56 -2 62 -4 65 -24 2
-15 10 -22 26 -22 13 0 29 -7 36 -15 7 -9 29 -15 51 -15 71 0 85 -14 94 -89
10 -85 10 -146 0 -198 -12 -66 -1 -73 116 -73 l98 0 3 57 c2 42 7 59 18 61 20
3 80 -81 80 -113 0 -25 7 -28 75 -40 57 -10 78 -45 26 -45 -59 0 -121 -13
-121 -25 0 -8 19 -17 43 -21 l42 -8 -40 -6 -40 -5 -3 -52 -3 -53 100 0 c101 0
101 0 101 -25 0 -27 1 -27 158 -45 100 -11 162 -6 162 15 0 15 -31 25 -82 25
-31 0 -38 4 -38 20 0 16 7 20 31 20 34 0 72 32 82 69 6 24 -2 27 -88 37 -58 6
-85 17 -85 35 0 5 15 9 34 9 43 0 86 46 86 93 0 45 20 14 20 -33 l1 -35 24 28
c15 17 39 31 60 34 25 4 35 11 35 23 0 41 109 74 169 51 14 -5 60 -15 101 -22
41 -7 79 -18 83 -26 4 -7 26 -17 47 -23 34 -9 40 -15 40 -38 0 -15 18 -63 40
-107 24 -47 39 -88 36 -100 -3 -11 -3 -37 1 -58 4 -30 10 -37 27 -37 23 0 76
-47 76 -68 0 -7 -14 -12 -32 -12 -18 0 -40 -5 -48 -10 -10 -7 7 -10 57 -10 62
0 74 -3 83 -20 9 -17 21 -20 85 -20 70 0 75 1 75 21 0 20 3 21 43 14 63 -13
244 -11 311 3 32 6 74 21 93 32 20 12 52 24 72 28 26 6 37 14 39 29 2 15 15
26 39 33 26 9 34 17 30 31 -3 10 3 25 14 35 10 9 19 25 19 35 0 25 33 54 78
67 39 12 84 58 116 120 13 26 23 32 49 32 l32 0 -24 19 -23 18 31 23 c18 12
30 28 28 35 -7 16 145 14 164 -2 8 -6 30 -13 49 -15 27 -2 35 -7 35 -23 0 -16
-8 -21 -37 -23 -25 -2 -38 -8 -38 -18 0 -11 20 -14 100 -14 80 0 100 3 100 14
0 8 -9 18 -20 21 -32 10 -26 56 13 93 38 37 71 41 87 12 6 -11 17 -20 25 -20
12 0 15 20 15 108 l0 109 48 -8 c26 -4 98 -8 160 -8 103 -1 113 1 110 17 -2
12 -14 18 -40 20 -26 2 -37 9 -41 23 -4 16 -14 19 -61 19 -48 0 -56 3 -56 19
0 10 7 24 15 31 8 7 14 18 13 24 -2 6 8 27 22 46 22 31 25 47 28 136 4 95 5
102 27 112 15 7 26 7 32 1 7 -7 23 -1 48 15 21 14 47 26 58 26 11 0 48 16 83
35 58 33 66 41 104 116 45 89 56 129 72 271 10 93 10 97 -12 130 -13 18 -30
38 -38 45 -22 18 -23 88 -1 137 21 49 33 56 89 56 30 0 39 4 44 23 l7 22 9
-22 c13 -32 82 -33 104 -2 l15 21 30 -22 c44 -31 65 -23 72 25 3 22 11 50 17
63 10 18 10 31 -3 67 -18 55 -20 142 -3 147 10 4 9 34 -2 139 -12 109 -13 149
-3 214 16 110 16 113 -7 120 -11 3 -20 15 -20 26 0 11 -5 28 -12 38 -9 15 -6
25 17 55 29 38 71 66 99 66 9 0 22 13 31 30 11 21 23 30 40 30 30 0 30 -1 8
68 -17 52 -17 55 2 68 10 8 27 14 37 14 29 0 79 28 119 66 27 26 49 37 88 43
38 6 61 17 85 40 17 17 35 31 38 31 4 0 8 -19 10 -42 l3 -43 53 -3 52 -3 0
165 0 166 -30 -6 -30 -6 0 81 c0 65 3 81 15 81 12 0 15 16 15 80 l0 80 36 0
c27 0 37 5 41 20 4 15 14 20 39 20 23 0 37 6 44 20 10 18 21 20 105 20 l95 0
0 119 0 119 48 44 c27 24 70 75 95 114 26 39 54 77 62 84 8 7 15 25 15 40 0
38 11 45 31 19 16 -22 18 -22 43 -5 26 17 27 19 24 109 -3 88 -4 91 -28 97
-18 4 -29 18 -42 55 -17 47 -18 56 -3 135 8 47 15 106 15 133 0 26 5 47 10 47
6 0 10 -48 10 -123 0 -117 7 -147 32 -147 4 0 8 81 8 180 l0 180 -24 0 c-32 0
-56 35 -56 81 l0 37 -72 23 c-79 26 -112 53 -97 81 5 9 9 26 9 37 0 14 6 21
20 21 34 0 80 40 80 70 0 14 5 31 11 37 6 6 12 56 14 112 2 56 7 106 10 111 3
6 22 10 41 10 l34 0 0 -70 c0 -56 3 -70 15 -70 23 0 20 130 -5 200 -19 55 -19
55 0 72 16 13 20 29 20 76 0 46 4 63 20 77 11 10 20 27 20 37 0 30 19 58 39
58 16 0 19 12 25 90 7 79 10 90 29 96 15 5 27 0 44 -20 23 -27 23 -30 23 -277
l0 -249 60 0 60 0 0 160 c0 153 -1 160 -20 160 -19 0 -20 7 -20 119 0 110 -1
119 -20 124 -15 4 -20 14 -20 41 0 35 0 35 -47 38 -36 2 -49 7 -51 21 -2 12 3
17 18 17 12 0 39 12 61 28 37 26 50 54 29 67 -6 4 -5 16 4 33 8 15 22 55 31
89 l17 62 -31 51 c-25 40 -29 55 -21 70 5 10 10 41 10 69 0 47 2 50 28 53 27
3 27 4 30 88 3 78 -8 150 -39 273 -8 30 -14 37 -34 37 -18 0 -26 7 -31 26 -5
21 1 33 32 67 22 23 53 70 69 104 17 34 37 64 47 66 9 3 18 15 20 28 2 18 10
25 31 27 27 3 27 2 27 -52 0 -60 5 -67 26 -38 12 15 13 9 14 -45 0 -49 3 -63
15 -63 8 0 19 9 25 20 19 35 40 24 40 -20 l0 -40 40 0 40 0 0 440 0 440 -24 0
c-51 0 -56 -7 -56 -86 l0 -74 -39 0 c-36 0 -40 -2 -46 -32 -4 -18 -12 -50 -17
-71 l-11 -37 -18 51 c-14 39 -16 57 -8 77 8 21 6 43 -12 100 -21 66 -25 72
-49 72 -15 0 -38 -8 -51 -19 l-24 -19 -80 65 c-54 43 -97 69 -133 79 -28 9
-56 23 -61 33 -6 10 -12 56 -16 102 -11 172 -23 232 -50 254 -30 25 -31 42 -5
71 19 19 20 26 9 70 -13 54 -50 101 -83 106 -17 2 -22 11 -24 45 -2 30 -8 44
-22 48 -15 5 -17 10 -8 38 17 51 24 62 44 65 10 2 25 11 31 20 12 14 15 13 38
-8 21 -20 28 -22 50 -12 l25 12 0 165 0 165 -170 0 -170 0 0 -49 0 -50 -30 10
c-25 9 -30 16 -30 45 0 22 -6 37 -19 43 -10 6 -22 22 -25 36 -5 18 -13 25 -31
25 -14 0 -29 8 -35 20 -9 17 -8 20 10 20 18 0 20 6 20 70 0 68 1 70 25 70 22
0 25 -3 19 -24 -6 -26 11 -64 50 -111 l25 -30 1 118 c0 110 1 119 20 124 36 9
26 59 -20 104 l-39 38 24 54 23 54 -28 17 c-29 17 -29 16 -45 -13 -8 -17 -15
-54 -15 -84 0 -40 -5 -58 -19 -71 -34 -30 -55 -7 -85 93 l-27 91 -38 0 c-35 0
-41 4 -56 37 -13 27 -15 41 -7 53 9 14 1 25 -43 64 -38 33 -57 58 -65 85 -6
25 -18 42 -35 49 -30 14 -32 35 -4 53 20 14 20 15 2 49 -15 29 -18 60 -18 172
0 95 -4 141 -13 150 -9 9 -12 9 -12 -1 0 -7 -4 -10 -9 -7 -5 3 -14 34 -20 68
-15 84 -30 136 -41 143 -5 3 -18 1 -29 -4 -16 -9 -24 -5 -50 28 -28 35 -31 46
-31 105 0 51 3 66 15 66 8 0 18 -14 23 -32 5 -19 16 -34 25 -36 16 -3 17 9 15
135 -3 115 -6 138 -18 138 -12 0 -16 -17 -18 -77 -3 -70 -5 -78 -22 -78 -18 0
-20 7 -20 80 0 63 -3 80 -14 80 -8 0 -18 -9 -21 -20 -3 -11 -15 -20 -26 -20
-15 0 -19 7 -19 35 0 24 -6 37 -20 45 -16 9 -20 21 -20 65 0 41 -4 55 -14 55
-8 0 -24 15 -35 34 -12 19 -32 41 -45 49 -13 9 -26 30 -30 47 -3 18 -21 47
-40 66 -28 28 -31 35 -19 45 8 7 19 21 24 31 10 18 7 19 -43 16 -42 -2 -53 0
-53 12 0 9 11 16 28 18 23 3 27 8 27 37 0 25 -5 35 -19 40 -14 4 -21 17 -23
43 l-3 37 -53 -1 c-31 -1 -63 -9 -79 -19 l-27 -18 22 -15 c12 -8 22 -21 22
-28 0 -8 9 -23 20 -34 l20 -20 -22 0 c-51 0 -96 20 -102 45 -6 24 -10 25 -81
25 -43 0 -75 4 -75 10 0 6 34 10 81 10 71 0 80 2 77 18 -3 14 -17 17 -89 20
-98 3 -117 -7 -103 -55 4 -16 8 -32 8 -36 1 -14 -158 -79 -191 -78 -17 1 -34
-3 -38 -9 -7 -12 -16 -12 -33 -1 -12 7 -11 14 2 38 8 17 22 33 31 36 9 4 15
19 15 37 0 27 -6 33 -46 50 -25 11 -47 20 -49 20 -2 0 -9 -16 -15 -35 -13 -39
-30 -38 -30 1 0 16 -17 41 -50 73 l-50 49 0 81 0 81 -160 0 c-153 0 -160 1
-160 20 0 19 7 20 161 20 147 0 160 1 157 18 -3 15 -17 17 -138 16 -332 -4
-420 -8 -420 -21 0 -13 -40 -19 -40 -5 0 4 -4 13 -9 20 -7 12 -13 11 -37 -1
-16 -8 -40 -27 -53 -41 l-24 -26 29 -1 c62 -1 66 -10 28 -56 -40 -49 -69 -55
-78 -19 -3 14 -15 28 -27 31 -19 6 -19 8 -5 24 19 21 22 101 4 101 -7 0 -80
-9 -163 -20 -82 -11 -180 -20 -216 -20 -57 0 -69 -3 -89 -25 l-24 -26 -13 26
c-14 25 -14 25 -157 25 -108 0 -146 -3 -155 -13 -8 -10 -23 -12 -54 -7 -55 8
-70 18 -64 41 7 26 -39 26 -53 0z m935 -821 c13 -5 14 -9 5 -9 -8 0 -24 4 -35
9 -13 5 -14 9 -5 9 8 0 24 -4 35 -9z m70 -27 c19 -9 35 -20 35 -25 0 -6 -58
22 -79 39 -12 9 12 1 44 -14z m723 -420 c-10 -2 -28 -2 -40 0 -13 2 -5 4 17 4
22 1 32 -1 23 -4z m1232 -78 c19 -19 32 -35 29 -35 -3 0 -20 16 -39 35 -19 19
-32 35 -29 35 3 0 20 -16 39 -35z m-4023 -207 c-2 -13 -4 -3 -4 22 0 25 2 35
4 23 2 -13 2 -33 0 -45z m-2762 26 l30 -26 -35 23 c-45 29 -45 29 -34 29 5 0
23 -12 39 -26z m52 -60 c-3 -3 -12 -4 -19 -1 -8 3 -5 6 6 6 11 1 17 -2 13 -5z
m5110 -46 c-3 -8 -6 -5 -6 6 -1 11 2 17 5 13 3 -3 4 -12 1 -19z m-4977 -24 c0
-2 -9 0 -20 6 -11 6 -20 13 -20 16 0 2 9 0 20 -6 11 -6 20 -13 20 -16z m3761
-17 c-10 -9 -11 -8 -5 6 3 10 9 15 12 12 3 -3 0 -11 -7 -18z m-3701 -7 c8 -5
11 -10 5 -10 -5 0 -17 5 -25 10 -8 5 -10 10 -5 10 6 0 17 -5 25 -10z m2253 -7
c-7 -2 -21 -2 -30 0 -10 3 -4 5 12 5 17 0 24 -2 18 -5z m3926 -42 c-6 -18 -13
-30 -15 -28 -2 2 1 18 7 36 6 18 13 30 15 28 2 -2 -1 -18 -7 -36z m-2579 16
c0 -2 -10 -12 -22 -23 l-23 -19 19 23 c18 21 26 27 26 19z m53 -51 c-10 -13
-19 -23 -21 -21 -7 6 19 45 29 45 5 0 2 -11 -8 -24z m2512 -76 c-9 -28 -19
-49 -21 -47 -2 2 3 24 11 47 9 24 13 51 10 60 -5 11 -3 12 6 3 8 -8 7 -23 -6
-63z m-4117 -27 c-10 -2 -26 -2 -35 0 -10 3 -2 5 17 5 19 0 27 -2 18 -5z m55
-40 c-7 -2 -21 -2 -30 0 -10 3 -4 5 12 5 17 0 24 -2 18 -5z m4075 -132 c38
-34 15 -23 -25 13 -19 16 -23 29 -21 75 l2 56 3 -55 c3 -49 8 -59 41 -89z
m-3022 22 c-6 -6 -36 9 -36 18 0 5 9 4 20 -3 10 -7 18 -14 16 -15z m-1661 -3
c-3 -5 -14 -10 -23 -9 -14 0 -13 2 3 9 27 11 27 11 20 0z m-3855 -20 c-8 -5
-19 -10 -25 -10 -5 0 -3 5 5 10 8 5 20 10 25 10 6 0 3 -5 -5 -10z m3760 7 c0
-1 -24 -25 -52 -52 l-53 -50 50 53 c46 48 55 57 55 49z m3051 -25 c-7 -2 -18
1 -23 6 -8 8 -4 9 13 5 13 -4 18 -8 10 -11z m-6901 -16 c0 -2 -7 -7 -16 -10
-8 -3 -12 -2 -9 4 6 10 25 14 25 6z m8747 -18 c-3 -8 -6 -5 -6 6 -1 11 2 17 5
13 3 -3 4 -12 1 -19z m-4994 -119 c-5 -5 -6 11 -3 34 4 41 5 41 8 8 2 -18 0
-37 -5 -42z m2167 14 c-11 -17 -11 -17 -6 0 3 10 6 24 7 30 0 9 2 9 5 0 3 -7
0 -20 -6 -30z m-2973 -29 c-5 -5 -57 13 -57 20 0 3 14 0 31 -6 16 -6 28 -12
26 -14z m2203 -10 c0 -2 -9 0 -20 6 -11 6 -20 13 -20 16 0 2 9 0 20 -6 11 -6
20 -13 20 -16z m-2307 9 c-18 -2 -48 -2 -65 0 -18 2 -4 4 32 4 36 0 50 -2 33
-4z m3084 -30 c-3 -10 -5 -4 -5 12 0 17 2 24 5 18 2 -7 2 -21 0 -30z m16 -114
c-6 -6 -7 3 -4 23 4 28 6 29 9 9 2 -13 0 -27 -5 -32z m2548 -6 c13 -16 12 -17
-3 -4 -17 13 -22 21 -14 21 2 0 10 -8 17 -17z m896 -45 c-3 -8 -6 -5 -6 6 -1
11 2 17 5 13 3 -3 4 -12 1 -19z m-254 -5 c-7 -2 -19 -2 -25 0 -7 3 -2 5 12 5
14 0 19 -2 13 -5z m-4438 -94 c-13 -24 -25 -40 -25 -35 0 11 43 87 47 82 2 -2
-8 -23 -22 -47z m-3610 -28 c-6 -5 -25 10 -25 20 0 5 6 4 14 -3 8 -7 12 -15
11 -17z m-62 12 c-13 -2 -33 -2 -45 0 -13 2 -3 4 22 4 25 0 35 -2 23 -4z
m7168 -30 c13 -16 12 -17 -3 -4 -10 7 -18 15 -18 17 0 8 8 3 21 -13z m-7441
-6 c0 -2 -10 -12 -22 -23 l-23 -19 19 23 c18 21 26 27 26 19z m3884 -96 c-9
-23 -18 -40 -20 -38 -2 2 4 22 13 45 9 23 18 40 20 38 2 -2 -4 -22 -13 -45z
m-4557 -37 c-3 -3 -12 -4 -19 -1 -8 3 -5 6 6 6 11 1 17 -2 13 -5z m241 -1
c-10 -2 -26 -2 -35 0 -10 3 -2 5 17 5 19 0 27 -2 18 -5z m4815 0 c-7 -2 -19
-2 -25 0 -7 3 -2 5 12 5 14 0 19 -2 13 -5z m-2327 -28 c-11 -8 -25 -15 -30
-15 -6 1 0 7 14 15 32 19 40 18 16 0z m864 12 c0 -2 -10 -12 -22 -23 l-23 -19
19 23 c18 21 26 27 26 19z m-2959 -104 c-12 -20 -14 -14 -5 12 4 9 9 14 11 11
3 -2 0 -13 -6 -23z m-20 -46 c-10 -9 -11 -8 -5 6 3 10 9 15 12 12 3 -3 0 -11
-7 -18z m1336 -19 c-3 -7 -5 -2 -5 12 0 14 2 19 5 13 2 -7 2 -19 0 -25z m2887
-74 c3 -8 2 -12 -4 -9 -6 3 -10 10 -10 16 0 14 7 11 14 -7z m897 -11 c13 -16
12 -17 -3 -4 -10 7 -18 15 -18 17 0 8 8 3 21 -13z m-2586 -23 c10 -11 16 -20
13 -20 -3 0 -13 9 -23 20 -10 11 -16 20 -13 20 3 0 13 -9 23 -20z m2449 -5
c-4 -8 -8 -15 -10 -15 -2 0 -4 7 -4 15 0 8 4 15 10 15 5 0 7 -7 4 -15z m-1891
-155 c-3 -12 -8 -19 -11 -16 -5 6 5 36 12 36 2 0 2 -9 -1 -20z m1134 -22 c-3
-7 -5 -2 -5 12 0 14 2 19 5 13 2 -7 2 -19 0 -25z m-2820 -4 c-3 -3 -12 -4 -19
-1 -8 3 -5 6 6 6 11 1 17 -2 13 -5z m2170 -31 c-3 -10 -5 -4 -5 12 0 17 2 24
5 18 2 -7 2 -21 0 -30z m3061 30 c-10 -2 -28 -2 -40 0 -13 2 -5 4 17 4 22 1
32 -1 23 -4z m1042 -18 c13 -14 21 -25 18 -25 -2 0 -15 11 -28 25 -13 14 -21
25 -18 25 2 0 15 -11 28 -25z m-3443 -17 c-3 -8 -6 -5 -6 6 -1 11 2 17 5 13 3
-3 4 -12 1 -19z m-620 -65 c-3 -10 -5 -4 -5 12 0 17 2 24 5 18 2 -7 2 -21 0
-30z m240 -25 c-3 -8 -6 -5 -6 6 -1 11 2 17 5 13 3 -3 4 -12 1 -19z m-4254
-35 c-7 -2 -19 -2 -25 0 -7 3 -2 5 12 5 14 0 19 -2 13 -5z m3308 -20 c13 -16
12 -17 -3 -4 -10 7 -18 15 -18 17 0 8 8 3 21 -13z m-3900 -40 c13 -16 12 -17
-3 -4 -10 7 -18 15 -18 17 0 8 8 3 21 -13z m8149 -38 c0 -8 -3 -16 -7 -18 -5
-3 -8 5 -8 18 0 13 3 21 8 18 4 -2 7 -10 7 -18z m-8490 -5 c-6 -11 -13 -20
-16 -20 -2 0 0 9 6 20 6 11 13 20 16 20 2 0 0 -9 -6 -20z m8051 -7 c13 -16 12
-17 -3 -4 -10 7 -18 15 -18 17 0 8 8 3 21 -13z m30 -40 c13 -16 12 -17 -3 -4
-10 7 -18 15 -18 17 0 8 8 3 21 -13z m-1051 -47 c0 -2 -8 -10 -17 -17 -16 -13
-17 -12 -4 4 13 16 21 21 21 13z m270 -30 c0 -2 -8 -10 -17 -17 -16 -13 -17
-12 -4 4 13 16 21 21 21 13z m-7497 -218 c-4 -7 -10 -33 -14 -58 l-6 -45 -2
38 c-1 35 12 77 25 77 3 0 2 -6 -3 -12z m8041 -42 c-18 -8 -35 -19 -38 -25 -4
-6 -14 -11 -23 -11 -23 0 48 48 72 49 14 0 11 -4 -11 -13z m-3389 -14 c-3 -3
-11 0 -18 7 -9 10 -8 11 6 5 10 -3 15 -9 12 -12z m5319 3 c3 -8 1 -15 -4 -15
-6 0 -10 7 -10 15 0 8 2 15 4 15 2 0 6 -7 10 -15z m-4879 -25 c10 -11 16 -20
13 -20 -3 0 -13 9 -23 20 -10 11 -16 20 -13 20 3 0 13 -9 23 -20z m-388 -16
c-3 -3 -12 -4 -19 -1 -8 3 -5 6 6 6 11 1 17 -2 13 -5z m-3596 -21 c13 -15 12
-15 -8 -4 -24 12 -29 21 -14 21 5 0 15 -7 22 -17z m-1168 -95 c9 -27 12 -48 8
-48 -4 0 -13 18 -20 41 -7 23 -15 48 -18 58 -4 11 -3 13 4 6 6 -5 17 -31 26
-57z m984 12 c3 -10 2 -11 -4 -4 -4 7 -19 14 -33 17 -22 4 -21 5 4 4 17 -1 31
-9 33 -17z m93 10 c0 -5 -7 -10 -15 -10 -8 0 -15 5 -15 10 0 6 7 10 15 10 8 0
15 -4 15 -10z m1065 -50 c-10 -11 -25 -20 -34 -19 -11 0 -9 3 5 9 12 5 25 13
29 19 3 6 9 11 12 11 3 0 -2 -9 -12 -20z m683 13 c-10 -2 -28 -2 -40 0 -13 2
-5 4 17 4 22 1 32 -1 23 -4z m-2754 -82 c-14 -12 -15 -12 -7 -1 6 9 7 23 2 35
-14 36 -8 51 7 16 14 -31 14 -35 -2 -50z m1559 72 c-7 -2 -21 -2 -30 0 -10 3
-4 5 12 5 17 0 24 -2 18 -5z m7144 -75 c-2 -13 -4 -5 -4 17 -1 22 1 32 4 23 2
-10 2 -28 0 -40z m-6446 -15 c-12 -20 -14 -14 -5 12 4 9 9 14 11 11 3 -2 0
-13 -6 -23z m-2284 -75 c-2 -13 -4 -5 -4 17 -1 22 1 32 4 23 2 -10 2 -28 0
-40z m9574 35 c13 -16 12 -17 -3 -4 -10 7 -18 15 -18 17 0 8 8 3 21 -13z m869
12 c0 -2 -10 -9 -22 -15 -22 -11 -22 -10 -4 4 21 17 26 19 26 11z m-8343 -37
c-3 -8 -6 -5 -6 6 -1 11 2 17 5 13 3 -3 4 -12 1 -19z m148 -8 c-3 -5 -16 -15
-28 -21 -19 -9 -19 -8 3 10 28 23 34 26 25 11z m-921 -26 c5 -14 4 -15 -9 -4
-17 14 -19 20 -6 20 5 0 12 -7 15 -16z m1137 -11 c13 -16 12 -17 -3 -4 -10 7
-18 15 -18 17 0 8 8 3 21 -13z m-2580 -40 c-12 -20 -14 -14 -5 12 4 9 9 14 11
11 3 -2 0 -13 -6 -23z m10588 3 c-2 -2 -15 -9 -29 -15 -24 -11 -24 -11 -6 3
16 13 49 24 35 12z m-659 -42 c0 -2 -7 -4 -15 -4 -8 0 -15 4 -15 10 0 5 7 7
15 4 8 -4 15 -8 15 -10z m-4450 -64 c0 -5 -2 -10 -4 -10 -3 0 -8 5 -11 10 -3
6 -1 10 4 10 6 0 11 -4 11 -10z m990 -50 c-6 -11 -13 -20 -16 -20 -2 0 0 9 6
20 6 11 13 20 16 20 2 0 0 -9 -6 -20z m-6847 -47 c-7 -2 -21 -2 -30 0 -10 3
-4 5 12 5 17 0 24 -2 18 -5z m6894 -50 c-3 -10 -5 -2 -5 17 0 19 2 27 5 18 2
-10 2 -26 0 -35z m-5040 -25 c-3 -7 -5 -2 -5 12 0 14 2 19 5 13 2 -7 2 -19 0
-25z m5518 12 c-3 -5 -12 -10 -18 -10 -7 0 -6 4 3 10 19 12 23 12 15 0z m295
-40 c-19 -11 -39 -19 -45 -19 -5 0 6 8 25 19 19 11 40 19 45 19 6 0 -6 -8 -25
-19z m-223 -16 c-3 -3 -12 -4 -19 -1 -8 3 -5 6 6 6 11 1 17 -2 13 -5z m890
-16 c-3 -8 -6 -5 -6 6 -1 11 2 17 5 13 3 -3 4 -12 1 -19z m-3640 -125 c-2 -21
-4 -6 -4 32 0 39 2 55 4 38 2 -18 2 -50 0 -70z m-1202 47 c-3 -5 -14 -10 -23
-9 -14 0 -13 2 3 9 27 11 27 11 20 0z m-2098 -22 c-3 -8 -6 -5 -6 6 -1 11 2
17 5 13 3 -3 4 -12 1 -19z m5979 -17 c-7 -11 -56 -21 -56 -10 0 4 12 10 28 12
15 2 28 5 30 6 2 0 1 -3 -2 -8z m-7518 -48 c-10 -2 -26 -2 -35 0 -10 3 -2 5
17 5 19 0 27 -2 18 -5z m603 -50 c13 -16 12 -17 -3 -4 -17 13 -22 21 -14 21 2
0 10 -8 17 -17z m3729 -50 c-11 -17 -11 -17 -6 0 3 10 6 24 7 30 0 9 2 9 5 0
3 -7 0 -20 -6 -30z m3189 23 c-2 -2 -15 -9 -29 -15 -24 -11 -24 -11 -6 3 16
13 49 24 35 12z m-3010 -100 c1 -42 -5 -29 -12 24 -4 30 -3 38 3 25 5 -11 9
-33 9 -49z m1581 20 c0 -6 -7 -1 -15 10 -8 10 -15 23 -15 28 0 6 7 1 15 -10 8
-10 15 -23 15 -28z m-1889 -14 c-7 -2 -18 1 -23 6 -8 8 -4 9 13 5 13 -4 18 -8
10 -11z m3509 -2 c-8 -5 -19 -10 -25 -10 -5 0 -3 5 5 10 8 5 20 10 25 10 6 0
3 -5 -5 -10z m2940 -35 c20 -24 6 -28 -15 -5 -10 11 -13 20 -8 20 6 0 16 -7
23 -15z m-1280 -8 c0 -2 -10 -12 -22 -23 l-23 -19 19 23 c18 21 26 27 26 19z
m-8410 -69 c-4 -49 -5 -50 -8 -14 -3 34 2 66 10 66 2 0 1 -24 -2 -52z m563
-58 c-37 -16 -42 -23 -46 -57 l-4 -38 -1 41 c-2 39 0 43 36 57 52 22 66 19 15
-3z m-990 3 c-7 -2 -19 -2 -25 0 -7 3 -2 5 12 5 14 0 19 -2 13 -5z m8704 -58
c-8 -22 -18 -40 -24 -42 -5 -2 -1 16 11 41 25 54 31 54 13 1z m-8060 -72 c-3
-10 -5 -2 -5 17 0 19 2 27 5 18 2 -10 2 -26 0 -35z m8030 -45 c-2 -13 -4 -3
-4 22 0 25 2 35 4 23 2 -13 2 -33 0 -45z m-2567 44 c0 -5 -7 -17 -15 -28 -14
-18 -14 -17 -4 9 12 27 19 34 19 19z m4971 -54 c-4 -35 -6 -38 -9 -15 -3 26 3
57 10 57 2 0 1 -19 -1 -42z m-5400 1 c-5 -13 -10 -19 -10 -12 -1 15 10 45 15
40 3 -2 0 -15 -5 -28z m359 -8 c-5 -11 -15 -23 -22 -27 -7 -5 -8 -2 -3 7 21
37 44 55 25 20z m-386 -83 c-14 -20 -15 -20 -9 -3 4 11 10 31 13 45 6 24 7 24
10 3 2 -13 -4 -33 -14 -45z m2613 40 c-3 -8 -6 -5 -6 6 -1 11 2 17 5 13 3 -3
4 -12 1 -19z m400 -15 c-3 -10 -5 -4 -5 12 0 17 2 24 5 18 2 -7 2 -21 0 -30z
m-6076 10 c13 -16 12 -17 -3 -4 -10 7 -18 15 -18 17 0 8 8 3 21 -13z m3296
-28 c-7 -13 -14 -20 -15 -14 -2 5 2 16 8 24 18 21 20 18 7 -10z m3421 0 c-3
-3 -9 2 -12 12 -6 14 -5 15 5 6 7 -7 10 -15 7 -18z m1769 -42 c-2 -16 -4 -5
-4 22 0 28 2 40 4 28 2 -13 2 -35 0 -50z m-3090 31 c-3 -3 -12 -4 -19 -1 -8 3
-5 6 6 6 11 1 17 -2 13 -5z m-2197 -34 c0 -5 -17 -9 -37 -9 l-38 2 35 7 c19 4
36 8 38 9 1 0 2 -3 2 -9z m2197 -102 c-2 -24 -4 -7 -4 37 0 44 2 63 4 43 2
-21 2 -57 0 -80z m670 70 c-3 -7 -5 -2 -5 12 0 14 2 19 5 13 2 -7 2 -19 0 -25z
m-2767 -28 c-6 -11 -13 -20 -16 -20 -2 0 0 9 6 19 5 11 7 28 4 38 -5 17 -5 17
6 1 8 -13 8 -23 0 -38z m5177 8 c-3 -8 -6 -5 -6 6 -1 11 2 17 5 13 3 -3 4 -12
1 -19z m-10 -55 c-3 -10 -5 -4 -5 12 0 17 2 24 5 18 2 -7 2 -21 0 -30z m-3460
-35 c-3 -8 -6 -5 -6 6 -1 11 2 17 5 13 3 -3 4 -12 1 -19z m1541 -53 c-3 -3 -9
2 -12 12 -6 14 -5 15 5 6 7 -7 10 -15 7 -18z m-5131 -7 c-3 -8 -6 -5 -6 6 -1
11 2 17 5 13 3 -3 4 -12 1 -19z m6630 -150 c-2 -13 -4 -3 -4 22 0 25 2 35 4
23 2 -13 2 -33 0 -45z m-3070 -10 c-3 -7 -5 -2 -5 12 0 14 2 19 5 13 2 -7 2
-19 0 -25z m-6384 -23 c-3 -9 -8 -14 -10 -11 -3 3 -2 9 2 15 9 16 15 13 8 -4z
m-16 -47 c-3 -8 -6 -5 -6 6 -1 11 2 17 5 13 3 -3 4 -12 1 -19z m7480 -85 c-3
-10 -5 -4 -5 12 0 17 2 24 5 18 2 -7 2 -21 0 -30z m-5743 11 c3 -8 2 -12 -4
-9 -6 3 -10 10 -10 16 0 14 7 11 14 -7z m-2535 -28 c-3 -3 -11 5 -18 17 -13
21 -12 21 5 5 10 -10 16 -20 13 -22z m-812 2 c-3 -8 -6 -5 -6 6 -1 11 2 17 5
13 3 -3 4 -12 1 -19z m-427 -32 c0 -2 -7 -7 -16 -10 -8 -3 -12 -2 -9 4 6 10
25 14 25 6z m6325 -74 c-3 -3 -11 0 -18 7 -9 10 -8 11 6 5 10 -3 15 -9 12 -12z
m5075 15 c0 -2 -10 -12 -22 -23 l-23 -19 19 23 c18 21 26 27 26 19z m-10199
-44 c-12 -20 -14 -14 -5 12 4 9 9 14 11 11 3 -2 0 -13 -6 -23z m-1224 -45 c-3
-8 -6 -5 -6 6 -1 11 2 17 5 13 3 -3 4 -12 1 -19z m1196 -13 c-3 -9 -8 -14 -10
-11 -3 3 -2 9 2 15 9 16 15 13 8 -4z m-6 -62 c-3 -10 -5 -4 -5 12 0 17 2 24 5
18 2 -7 2 -21 0 -30z m5193 -78 c13 -14 21 -25 18 -25 -2 0 -15 11 -28 25 -13
14 -21 25 -18 25 2 0 15 -11 28 -25z m-706 -34 c-2 -3 -12 3 -22 13 -16 17
-16 18 5 5 12 -7 20 -15 17 -18z m-4424 -46 c13 -14 21 -25 18 -25 -2 0 -15
11 -28 25 -13 14 -21 25 -18 25 2 0 15 -11 28 -25z m980 -18 l45 -4 -46 -1
c-34 -2 -50 3 -60 16 -12 15 -12 16 1 5 9 -6 36 -13 60 -16z m-137 -4 c-7 -2
-19 -2 -25 0 -7 3 -2 5 12 5 14 0 19 -2 13 -5z m-778 -53 c21 -22 37 -40 34
-40 -3 0 -23 18 -44 40 -21 22 -37 40 -34 40 3 0 23 -18 44 -40z m282 10 c18
-16 31 -30 27 -30 -3 0 -22 14 -41 30 -18 17 -31 30 -27 30 3 0 22 -13 41 -30z
m166 -90 c35 0 118 -93 117 -132 -1 -7 -10 5 -21 27 -27 54 -67 93 -98 97 -25
3 -26 6 -27 63 l0 60 3 -57 c4 -52 6 -58 26 -58z m3477 74 c0 -2 -9 0 -20 6
-11 6 -20 13 -20 16 0 2 9 0 20 -6 11 -6 20 -13 20 -16z m5180 12 c0 -2 -15
-6 -34 -8 -19 -2 -32 0 -30 4 5 8 64 12 64 4z m-7883 -33 c-20 -2 -52 -2 -70
0 -17 2 0 4 38 4 39 0 53 -2 32 -4z m-1276 -81 c-18 -2 -37 0 -42 5 -5 5 11 6
34 3 41 -4 41 -5 8 -8z m148 -12 c11 -24 11 -24 -3 -6 -9 11 -16 24 -16 30 0
12 5 7 19 -24z m3558 14 c-3 -3 -12 -4 -19 -1 -8 3 -5 6 6 6 11 1 17 -2 13 -5z
m-3637 -29 c13 -14 21 -25 18 -25 -2 0 -15 11 -28 25 -13 14 -21 25 -18 25 2
0 15 -11 28 -25z m7780 -5 c12 -16 19 -30 16 -30 -2 0 -14 14 -26 30 -12 17
-19 30 -16 30 2 0 14 -13 26 -30z m-8122 -47 c-10 -2 -28 -2 -40 0 -13 2 -5 4
17 4 22 1 32 -1 23 -4z m1500 0 c-16 -2 -40 -2 -55 0 -16 2 -3 4 27 4 30 0 43
-2 28 -4z m2009 -39 c-3 -3 -12 -4 -19 -1 -8 3 -5 6 6 6 11 1 17 -2 13 -5z
m3780 -56 c-3 -7 -5 -2 -5 12 0 14 2 19 5 13 2 -7 2 -19 0 -25z m-7917 -175
l-5 -98 -3 84 c-2 74 1 111 10 111 2 0 1 -44 -2 -97z m600 70 c-14 -2 -42 -23
-64 -46 -21 -23 -33 -33 -25 -22 32 49 64 75 88 74 l26 -2 -25 -4z m4061 -46
c-10 -9 -11 -8 -5 6 3 10 9 15 12 12 3 -3 0 -11 -7 -18z m-2971 -7 c6 -11 8
-20 6 -20 -3 0 -10 9 -16 20 -6 11 -8 20 -6 20 3 0 10 -9 16 -20z m4394 4 c3
-8 2 -12 -4 -9 -6 3 -10 10 -10 16 0 14 7 11 14 -7z m-4309 -44 c10 -11 16
-20 13 -20 -3 0 -13 9 -23 20 -10 11 -16 20 -13 20 3 0 13 -9 23 -20z m665
-46 c0 -2 -9 0 -20 6 -11 6 -20 13 -20 16 0 2 9 0 20 -6 11 -6 20 -13 20 -16z
m674 -19 c-20 -25 -39 -45 -41 -45 -7 0 12 25 46 63 39 43 36 32 -5 -18z
m-1283 -2 c13 -16 12 -17 -3 -4 -10 7 -18 15 -18 17 0 8 8 3 21 -13z m5927
-118 c17 -20 17 -20 -5 -1 -17 14 -23 29 -21 55 l1 36 4 -35 c3 -19 12 -44 21
-55z m362 24 c0 -39 -38 -145 -48 -135 -2 3 6 26 18 51 15 31 21 59 18 89 -1
24 0 42 5 39 4 -2 7 -22 7 -44z m-7530 31 c-8 -5 -19 -10 -25 -10 -5 0 -3 5 5
10 8 5 20 10 25 10 6 0 3 -5 -5 -10z m787 -37 c-3 -10 -5 -4 -5 12 0 17 2 24
5 18 2 -7 2 -21 0 -30z m-830 21 c-3 -3 -12 -4 -19 -1 -8 3 -5 6 6 6 11 1 17
-2 13 -5z m3063 -39 c0 -5 -5 -3 -10 5 -5 8 -10 20 -10 25 0 6 5 3 10 -5 5 -8
10 -19 10 -25z m4661 -22 c13 -16 12 -17 -3 -4 -10 7 -18 15 -18 17 0 8 8 3
21 -13z m2176 -15 c-3 -8 -6 -5 -6 6 -1 11 2 17 5 13 3 -3 4 -12 1 -19z
m-2610 -25 c-3 -10 -5 -4 -5 12 0 17 2 24 5 18 2 -7 2 -21 0 -30z m-4220 5
c-3 -8 -6 -5 -6 6 -1 11 2 17 5 13 3 -3 4 -12 1 -19z m4694 -30 c-7 -18 -6
-39 0 -63 14 -51 3 -56 -12 -6 -9 32 -10 47 0 67 9 20 9 30 -1 43 -11 15 -10
15 5 0 14 -12 16 -21 8 -41z m-4371 -61 c0 -2 -12 -14 -27 -28 l-28 -24 24 28
c23 25 31 32 31 24z m-1280 -64 c13 -15 13 -16 0 -6 -9 7 -38 16 -65 22 l-50
10 50 -4 c28 -3 56 -12 65 -22z m5611 -16 c-10 -9 -11 -8 -5 6 3 10 9 15 12
12 3 -3 0 -11 -7 -18z m-534 -13 c-3 -3 -12 -4 -19 -1 -8 3 -5 6 6 6 11 1 17
-2 13 -5z m93 -9 c-7 -8 -24 -15 -39 -14 -24 0 -23 1 9 13 19 8 37 14 39 15 2
0 -2 -6 -9 -14z m-6952 -12 c-10 -2 -26 -2 -35 0 -10 3 -2 5 17 5 19 0 27 -2
18 -5z m4003 -10 c13 -16 12 -17 -3 -4 -10 7 -18 15 -18 17 0 8 8 3 21 -13z
m3012 10 c-7 -2 -21 -2 -30 0 -10 3 -4 5 12 5 17 0 24 -2 18 -5z m-4783 -68
c30 -30 52 -55 49 -55 -2 0 -29 25 -59 55 -30 30 -52 55 -49 55 2 0 29 -25 59
-55z m4885 -5 c3 -6 -1 -7 -9 -4 -18 7 -21 14 -7 14 6 0 13 -4 16 -10z m-2245
-14 c0 -2 -8 -10 -17 -17 -16 -13 -17 -12 -4 4 13 16 21 21 21 13z m-769 -23
c13 -16 12 -17 -3 -4 -10 7 -18 15 -18 17 0 8 8 3 21 -13z m3102 10 c-13 -2
-35 -2 -50 0 -16 2 -5 4 22 4 28 0 40 -2 28 -4z m-2049 -98 c4 -11 -2 -4 -13
15 -11 19 -20 44 -20 55 0 18 10 -2 33 -70z m1569 68 c-7 -2 -19 -2 -25 0 -7
3 -2 5 12 5 14 0 19 -2 13 -5z m-2588 -23 c10 -11 16 -20 13 -20 -3 0 -13 9
-23 20 -10 11 -16 20 -13 20 3 0 13 -9 23 -20z m1516 -47 l24 -28 -27 24 -27
23 -33 -22 -33 -22 30 26 c17 14 33 26 36 26 3 0 16 -12 30 -27z m-1698 10
c-7 -2 -19 -2 -25 0 -7 3 -2 5 12 5 14 0 19 -2 13 -5z m4443 -41 c-8 -15 -22
-35 -32 -42 -9 -8 -5 3 10 24 14 21 26 46 27 55 0 9 3 11 5 4 3 -6 -2 -25 -10
-41z m-5806 -27 c17 -9 30 -18 30 -21 0 -4 -59 23 -69 32 -10 9 13 3 39 -11z
m-2053 -1 c-3 -3 -12 -4 -19 -1 -8 3 -5 6 6 6 11 1 17 -2 13 -5z m6861 -41
c-16 -2 -40 -2 -55 0 -16 2 -3 4 27 4 30 0 43 -2 28 -4z m945 -8 c-3 -9 -8
-14 -10 -11 -3 3 -2 9 2 15 9 16 15 13 8 -4z m1206 -21 c-8 -10 -15 -11 -24
-4 -8 7 -38 -15 -104 -76 -50 -48 -93 -85 -95 -83 -2 2 38 42 89 89 64 59 100
85 119 86 22 2 25 -1 15 -12z m-6711 -103 l-1 -36 -4 38 c-2 20 -8 37 -14 37
-5 0 -9 5 -9 11 0 8 5 8 15 -1 9 -7 14 -27 13 -49z m5612 39 c-6 -11 -15 -20
-20 -20 -6 0 -2 9 7 20 10 11 19 20 21 20 1 0 -2 -9 -8 -20z m-4413 -77 c-2
-16 -4 -5 -4 22 0 28 2 40 4 28 2 -13 2 -35 0 -50z m-3667 42 c-14 -8 -29 -14
-35 -14 -5 0 1 6 15 14 14 8 30 14 35 14 6 0 -1 -6 -15 -14z m7980 -5 c-8 -5
-19 -10 -25 -10 -5 0 -3 5 5 10 8 5 20 10 25 10 6 0 3 -5 -5 -10z m-7520 -65
c-1 -11 -27 20 -41 50 -6 11 1 7 15 -10 14 -16 26 -34 26 -40z m-536 19 c-15
-19 -35 -41 -44 -47 -9 -7 -28 -30 -42 -52 -29 -46 -55 -71 -65 -61 -3 3 -1 6
5 6 7 0 28 25 47 55 19 30 44 59 55 65 11 6 27 24 35 40 9 17 20 30 26 30 5 0
-2 -16 -17 -36z m7001 26 c-3 -5 -12 -10 -18 -10 -7 0 -6 4 3 10 19 12 23 12
15 0z m-2098 -22 c-3 -8 -6 -5 -6 6 -1 11 2 17 5 13 3 -3 4 -12 1 -19z m270
16 c-3 -3 -12 -4 -19 -1 -8 3 -5 6 6 6 11 1 17 -2 13 -5z m206 -21 c-7 -2 -19
-2 -25 0 -7 3 -2 5 12 5 14 0 19 -2 13 -5z m-2841 -37 c2 -19 0 -32 -4 -30 -8
5 -12 64 -4 64 2 0 6 -15 8 -34z m7708 9 c0 -2 -10 -9 -22 -15 -22 -11 -22
-10 -4 4 21 17 26 19 26 11z m-4550 -19 c0 -2 -8 -10 -17 -17 -16 -13 -17 -12
-4 4 13 16 21 21 21 13z m-40 -31 c0 -2 -10 -9 -22 -15 -22 -11 -22 -10 -4 4
21 17 26 19 26 11z m1290 -115 c-30 -27 -59 -50 -63 -50 -5 0 18 23 49 50 31
28 60 50 63 50 3 0 -19 -23 -49 -50z m-2242 33 c-10 -2 -26 -2 -35 0 -10 3 -2
5 17 5 19 0 27 -2 18 -5z m2497 -5 c32 15 92 16 100 1 5 -6 -8 -9 -37 -8 -23
1 -55 -3 -69 -9 -15 -6 -31 -7 -40 -1 -20 13 -24 12 -61 -17 -26 -20 -25 -18
6 9 32 30 41 34 56 25 14 -9 25 -9 45 0z m-415 -90 c-11 -12 -25 -36 -29 -53
-6 -20 -9 -24 -10 -10 -1 24 34 85 49 85 6 0 1 -10 -10 -22z m-2220 -2 c0 -2
-9 -6 -20 -9 -11 -3 -18 -1 -14 4 5 9 34 13 34 5z m-2240 -39 l45 -4 -46 -1
c-37 -2 -50 3 -65 21 -19 22 -19 22 1 5 11 -9 40 -18 65 -21z m4687 -3 c-3 -3
-12 -4 -19 -1 -8 3 -5 6 6 6 11 1 17 -2 13 -5z m-4807 -37 c0 -2 -10 -12 -22
-23 l-23 -19 19 23 c18 21 26 27 26 19z m3698 -26 c-26 -4 -56 -15 -67 -25
-12 -11 -21 -14 -21 -8 0 19 53 41 95 40 l40 -1 -47 -6z m1842 -4 c0 -2 -12
-14 -27 -28 l-28 -24 24 28 c23 25 31 32 31 24z m-3047 -14 c-7 -2 -19 -2 -25
0 -7 3 -2 5 12 5 14 0 19 -2 13 -5z m52 -13 c13 -6 15 -9 5 -9 -8 0 -22 4 -30
9 -18 12 -2 12 25 0z m1948 -61 c-6 -6 -19 -9 -29 -6 -16 4 -15 5 4 6 12 0 22
6 22 13 0 6 3 8 7 5 4 -4 2 -12 -4 -18z m-853 7 c0 -2 -8 -10 -17 -17 -16 -13
-17 -12 -4 4 13 16 21 21 21 13z m1179 -13 c-41 -55 -51 -62 -70 -50 -11 7
-19 16 -19 21 0 4 7 3 16 -4 13 -11 20 -9 47 18 35 35 47 42 26 15z m-400 -20
c-40 -47 -42 -49 -34 -33 10 19 47 60 53 60 3 0 -5 -12 -19 -27z m-3104 -43
c10 -11 16 -20 13 -20 -3 0 -13 9 -23 20 -10 11 -16 20 -13 20 3 0 13 -9 23
-20z m382 -27 c-3 -10 -5 -2 -5 17 0 19 2 27 5 18 2 -10 2 -26 0 -35z m3107
-18 c-9 -14 -18 -25 -21 -25 -5 0 5 18 20 38 17 22 18 13 1 -13z m-2561 8 c-7
-2 -21 -2 -30 0 -10 3 -4 5 12 5 17 0 24 -2 18 -5z m2534 -140 c-2 -21 -4 -6
-4 32 0 39 2 55 4 38 2 -18 2 -50 0 -70z m-4554 42 c9 -19 13 -35 9 -35 -5 0
-16 16 -25 35 -9 19 -13 35 -9 35 5 0 16 -16 25 -35z m2972 -85 c-3 -5 -12
-10 -18 -10 -7 0 -6 4 3 10 19 12 23 12 15 0z m1610 -20 c10 -11 16 -20 13
-20 -3 0 -13 9 -23 20 -10 11 -16 20 -13 20 3 0 13 -9 23 -20z m-1057 -17
c-15 -2 -42 -2 -60 0 -18 2 -6 4 27 4 33 0 48 -2 33 -4z m-1914 -19 c3 -8 2
-12 -4 -9 -6 3 -10 10 -10 16 0 14 7 11 14 -7z m-1599 -64 c72 -32 129 -69
121 -77 -3 -3 -18 6 -34 19 -16 14 -56 35 -88 48 -53 21 -88 40 -72 40 3 0 36
-14 73 -30z m1685 6 c8 -2 -13 -4 -48 -5 -35 0 -61 3 -58 7 4 7 70 6 106 -2z
m-1320 -26 c12 -16 19 -30 16 -30 -2 0 -14 14 -26 30 -12 17 -19 30 -16 30 2
0 14 -13 26 -30z m1361 -7 c13 -16 12 -17 -3 -4 -10 7 -18 15 -18 17 0 8 8 3
21 -13z m-1560 -60 c13 -16 12 -17 -3 -4 -17 13 -22 21 -14 21 2 0 10 -8 17
-17z m276 -15 c-3 -8 -6 -5 -6 6 -1 11 2 17 5 13 3 -3 4 -12 1 -19z m-1354 -3
c-3 -9 -8 -14 -10 -11 -3 3 -2 9 2 15 9 16 15 13 8 -4z m1118 -12 c13 -16 12
-17 -3 -4 -17 13 -22 21 -14 21 2 0 10 -8 17 -17z m5602 0 c-13 -2 -33 -2 -45
0 -13 2 -3 4 22 4 25 0 35 -2 23 -4z m-2190 -40 c-7 -2 -19 -2 -25 0 -7 3 -2
5 12 5 14 0 19 -2 13 -5z m-182 -58 c7 -13 3 -12 -10 5 -11 14 -21 30 -21 35
0 11 14 -7 31 -40z m-1414 29 c-3 -3 -12 -4 -19 -1 -8 3 -5 6 6 6 11 1 17 -2
13 -5z m1873 -47 c0 -2 -12 -14 -27 -28 l-28 -24 24 28 c23 25 31 32 31 24z
m-2393 -69 c-3 -7 -5 -2 -5 12 0 14 2 19 5 13 2 -7 2 -19 0 -25z m-2731 -179
c3 -6 -5 -3 -20 6 -14 10 -26 19 -26 22 0 7 39 -17 46 -28z m3347 4 c-7 -2
-19 -2 -25 0 -7 3 -2 5 12 5 14 0 19 -2 13 -5z m3187 -7 c0 -2 -8 -10 -17 -17
-16 -13 -17 -12 -4 4 13 16 21 21 21 13z m-63 -42 c-3 -3 -12 -4 -19 -1 -8 3
-5 6 6 6 11 1 17 -2 13 -5z m-4257 -38 c0 -2 -8 -10 -17 -17 -16 -13 -17 -12
-4 4 13 16 21 21 21 13z m1325 -56 c-3 -5 -12 -10 -18 -10 -7 0 -6 4 3 10 19
12 23 12 15 0z m3825 -77 c-11 -17 -11 -17 -6 0 3 10 6 24 7 30 0 9 2 9 5 0 3
-7 0 -20 -6 -30z m-3 -53 c-7 -17 -13 -26 -15 -21 -3 10 15 51 22 51 3 0 -1
-14 -7 -30z m-1778 -103 c-2 -2 -20 -14 -39 -26 l-35 -23 30 26 c17 14 34 26
39 26 5 0 7 -1 5 -3z m36 -17 c3 -6 -1 -7 -9 -4 -18 7 -21 14 -7 14 6 0 13 -4
16 -10z m-2878 -67 c-3 -10 -5 -2 -5 17 0 19 2 27 5 18 2 -10 2 -26 0 -35z
m-759 -60 c-16 -2 -40 -2 -55 0 -16 2 -3 4 27 4 30 0 43 -2 28 -4z m148 -14
c19 -22 19 -22 -3 -10 -24 12 -39 31 -25 31 5 0 17 -10 28 -21z m-679 -46 c-3
-10 -5 -4 -5 12 0 17 2 24 5 18 2 -7 2 -21 0 -30z m-98 -56 c-2 -1 -13 -9 -24
-17 -19 -14 -19 -14 -6 3 7 9 18 17 24 17 6 0 8 -1 6 -3z m5751 -22 c13 -14
21 -25 18 -25 -2 0 -15 11 -28 25 -13 14 -21 25 -18 25 2 0 15 -11 28 -25z
m-3843 -105 c27 0 183 -113 183 -133 0 -5 -20 8 -44 29 -46 41 -127 94 -144
94 -5 0 -16 8 -23 18 -11 14 -11 15 1 5 8 -7 20 -13 27 -13z m3553 -44 c0 -2
-8 -10 -17 -17 -16 -13 -17 -12 -4 4 13 16 21 21 21 13z m-60 -51 c-21 -22
-31 -25 -84 -23 l-61 2 61 3 c45 3 66 9 79 23 10 11 20 20 23 20 3 0 -5 -11
-18 -25z m-3675 -25 c10 -11 16 -20 13 -20 -3 0 -13 9 -23 20 -10 11 -16 20
-13 20 3 0 13 -9 23 -20z m3695 -60 c-14 -4 -34 -8 -45 -8 -16 0 -15 2 5 8 14
4 34 8 45 8 16 0 15 -2 -5 -8z m-3090 -30 c-8 -5 -19 -10 -25 -10 -5 0 -3 5 5
10 8 5 20 10 25 10 6 0 3 -5 -5 -10z m2966 -15 c-11 -8 -29 -15 -40 -14 -15 0
-10 4 14 13 46 18 48 18 26 1z m-1886 -30 c-7 -9 -15 -13 -17 -11 -7 7 7 26
19 26 6 0 6 -6 -2 -15z m1817 9 c-3 -3 -12 -4 -19 -1 -8 3 -5 6 6 6 11 1 17
-2 13 -5z m-100 -20 c-3 -3 -12 -4 -19 -1 -8 3 -5 6 6 6 11 1 17 -2 13 -5z
m-112 -11 c-53 -4 -65 -8 -100 -41 l-40 -37 40 43 c38 41 40 42 100 40 l60 -2
-60 -3z m-709 -20 c-45 -3 -69 -11 -102 -34 -24 -16 -44 -28 -44 -25 0 3 19
18 43 35 36 26 50 30 102 29 l60 -2 -59 -3z m-2039 -19 c-3 -3 -12 -4 -19 -1
-8 3 -5 6 6 6 11 1 17 -2 13 -5z m-860 -80 c-3 -3 -12 -4 -19 -1 -8 3 -5 6 6
6 11 1 17 -2 13 -5z m-2306 -81 c13 -16 12 -17 -3 -4 -10 7 -18 15 -18 17 0 8
8 3 21 -13z m6018 -102 c10 -7 7 -9 -12 -8 -14 1 -23 5 -20 10 6 9 15 9 32 -2z
m-61 -18 c-10 -2 -28 -2 -40 0 -13 2 -5 4 17 4 22 1 32 -1 23 -4z m-136 -28
c10 7 11 5 0 -6 -10 -11 -16 -9 -35 11 -22 24 -22 24 0 6 12 -10 27 -15 35
-11z m-2142 -141 c0 -2 -9 0 -20 6 -11 6 -20 13 -20 16 0 2 9 0 20 -6 11 -6
20 -13 20 -16z m148 9 c-10 -2 -26 -2 -35 0 -10 3 -2 5 17 5 19 0 27 -2 18 -5z
m-2843 -373 c10 -11 16 -20 13 -20 -3 0 -13 9 -23 20 -10 11 -16 20 -13 20 3
0 13 -9 23 -20z m216 -27 c13 -16 12 -17 -3 -4 -17 13 -22 21 -14 21 2 0 10
-8 17 -17z m5300 -16 c-10 -9 -11 -8 -5 6 3 10 9 15 12 12 3 -3 0 -11 -7 -18z
m-214 -179 c-3 -8 -6 -5 -6 6 -1 11 2 17 5 13 3 -3 4 -12 1 -19z m-1977 -13
c13 -14 21 -25 18 -25 -2 0 -15 11 -28 25 -13 14 -21 25 -18 25 2 0 15 -11 28
-25z m-2469 -232 c13 -17 13 -17 -6 -3 -11 8 -22 16 -24 17 -2 2 0 3 6 3 6 0
17 -8 24 -17z m94 -13 c10 -11 16 -20 13 -20 -3 0 -13 9 -23 20 -10 11 -16 20
-13 20 3 0 13 -9 23 -20z m962 -26 c-3 -3 -12 -4 -19 -1 -8 3 -5 6 6 6 11 1
17 -2 13 -5z m159 -70 c18 -14 18 -14 -6 -3 -31 14 -36 19 -24 19 6 0 19 -7
30 -16z m974 -40 c16 -10 18 -13 5 -8 -11 4 -28 7 -37 8 -9 0 -14 4 -12 8 7
11 15 10 44 -8z m1130 2 c0 -2 -8 -10 -17 -17 -16 -13 -17 -12 -4 4 13 16 21
21 21 13z m-2757 -93 c-7 -2 -19 -2 -25 0 -7 3 -2 5 12 5 14 0 19 -2 13 -5z
m1242 -63 c10 -11 16 -20 13 -20 -3 0 -13 9 -23 20 -10 11 -16 20 -13 20 3 0
13 -9 23 -20z m50 -60 c10 -11 16 -20 13 -20 -3 0 -13 9 -23 20 -10 11 -16 20
-13 20 3 0 13 -9 23 -20z m660 10 c3 -5 1 -10 -4 -10 -6 0 -11 5 -11 10 0 6 2
10 4 10 3 0 8 -4 11 -10z m137 -22 c16 -10 28 -22 28 -24 0 -6 -18 4 -39 20
-7 6 -37 16 -65 23 l-51 12 50 -5 c27 -3 62 -15 77 -26z m66 -105 c-10 -2 -26
-2 -35 0 -10 3 -2 5 17 5 19 0 27 -2 18 -5z"/>
<path d="M7157 12337 c-29 -25 -37 -39 -37 -64 0 -26 -4 -33 -20 -33 -18 0
-20 7 -20 60 0 53 -2 60 -20 60 -19 0 -20 -7 -20 -100 l0 -100 39 0 c22 0 42
-4 45 -9 3 -5 20 -11 38 -14 18 -3 44 -8 57 -13 l24 -7 -5 105 c-5 96 -18 149
-36 148 -4 -1 -24 -15 -45 -33z"/>
<path d="M10960 12120 c0 -19 7 -33 20 -40 14 -7 20 -21 20 -44 0 -25 5 -35
20 -39 16 -4 20 -14 20 -46 0 -23 4 -41 8 -41 4 0 22 15 40 33 31 32 32 36 32
120 l0 87 -80 0 -80 0 0 -30z"/>
<path d="M6802 11738 c3 -79 6 -93 21 -96 15 -3 17 5 17 53 0 48 3 58 20 62
15 4 20 14 20 39 0 33 -1 34 -40 34 l-41 0 3 -92z"/>
<path d="M4342 11447 c-18 -18 -32 -36 -32 -40 0 -4 36 -7 80 -7 l80 0 0 40 0
40 -48 0 c-41 0 -53 -5 -80 -33z"/>
<path d="M11472 11332 c-29 -24 -32 -33 -32 -78 0 -43 3 -53 20 -57 19 -5 20
-14 20 -160 l0 -155 -46 -7 -46 -7 33 -34 c24 -25 41 -34 66 -34 l33 0 0 274
c0 151 -3 277 -8 280 -4 2 -22 -8 -40 -22z"/>
<path d="M721 9583 c-20 -17 -20 -22 -9 -83 6 -36 13 -67 15 -69 1 -2 12 8 24
22 11 15 30 27 41 27 11 0 33 9 49 21 22 15 29 28 29 53 0 29 -4 34 -31 40
-54 11 -96 7 -118 -11z"/>
<path d="M0 6524 c0 -62 1 -66 20 -60 11 3 29 9 40 12 18 6 20 2 20 -35 0 -40
1 -41 34 -41 41 0 62 21 47 47 -5 10 -28 36 -50 58 -25 23 -41 48 -41 62 0 20
-5 23 -35 23 l-35 0 0 -66z"/>
<path d="M412 6088 c-8 -8 -12 -60 -12 -170 l0 -158 51 0 c45 0 50 2 44 18 -4
9 -10 60 -13 112 -5 87 -4 94 12 81 14 -12 16 -9 16 36 0 39 -5 54 -23 71 -26
24 -57 28 -75 10z"/>
<path d="M12112 4607 c-27 -28 -32 -41 -32 -80 l0 -47 40 0 40 0 0 74 c0 41
-4 77 -8 80 -5 3 -23 -9 -40 -27z"/>
<path d="M10188 1328 c-40 -28 -38 -70 5 -108 17 -16 35 -30 40 -30 4 0 7 20
7 45 l0 45 40 0 c28 0 40 4 40 14 0 17 -22 26 -65 26 -21 0 -35 5 -37 14 -2
12 -8 11 -30 -6z"/>
<path d="M8320 15 c0 -13 24 -15 160 -15 136 0 160 2 160 15 0 13 -24 15 -160
15 -136 0 -160 -2 -160 -15z"/>
</g>
</svg>
