<?xml version="1.0" standalone="no"?>
<!DOCTYPE svg PUBLIC "-//W3C//DTD SVG 20010904//EN"
 "http://www.w3.org/TR/2001/REC-SVG-20010904/DTD/svg10.dtd">
<svg version="1.0" xmlns="http://www.w3.org/2000/svg"
 width="1280.000000pt" height="717.000000pt" viewBox="0 0 1280.000000 717.000000"
 preserveAspectRatio="xMidYMid meet">
<metadata>
Created by potrace 1.15, written by Peter Selinger 2001-2017
</metadata>
<g transform="translate(0.000000,717.000000) scale(0.100000,-0.100000)"
fill="#000000" stroke="none">
<path d="M1 7154 c0 -11 3 -14 6 -6 3 7 2 16 -1 19 -3 4 -6 -2 -5 -13z"/>
<path d="M10705 6160 c-3 -5 -2 -10 4 -10 5 0 13 5 16 10 3 6 2 10 -4 10 -5 0
-13 -4 -16 -10z"/>
<path d="M2452 6051 c-18 -11 3 -33 29 -29 13 1 23 7 22 13 -2 13 -38 25 -51
16z"/>
<path d="M10960 5970 c0 -5 7 -10 15 -10 8 0 15 5 15 10 0 6 -7 10 -15 10 -8
0 -15 -4 -15 -10z"/>
<path d="M10597 5940 c-19 -31 -16 -50 8 -50 17 0 35 31 35 59 0 31 -23 26
-43 -9z"/>
<path d="M6900 5897 c0 -11 -8 -29 -17 -40 -18 -19 -17 -20 22 -12 22 4 62 10
89 14 27 3 51 11 53 17 5 16 -46 36 -99 39 -43 3 -48 1 -48 -18z"/>
<path d="M10596 5862 c-2 -2 3 -16 11 -33 16 -32 47 -38 78 -15 16 11 17 17 7
29 -11 13 -87 28 -96 19z"/>
<path d="M6058 5818 c-33 -9 -38 -14 -38 -38 0 -16 3 -31 8 -33 4 -3 31 4 60
15 44 16 53 24 50 41 -4 26 -26 30 -80 15z"/>
<path d="M10710 5776 c-9 -12 -7 -21 11 -45 28 -38 69 -41 99 -9 l21 22 -43
23 c-51 26 -71 28 -88 9z"/>
<path d="M10564 5736 c-47 -32 -49 -35 -46 -75 4 -49 -12 -60 -59 -41 -60 25
-156 -50 -120 -94 7 -8 9 -31 5 -60 l-7 -47 -53 5 c-30 3 -67 12 -84 21 -37
19 -81 19 -126 0 -21 -8 -47 -12 -66 -8 -22 4 -29 3 -24 -5 4 -7 15 -12 26
-12 19 0 30 -19 30 -51 0 -25 45 -36 84 -19 50 21 81 18 84 -7 3 -21 28 -35
92 -51 29 -7 34 -12 35 -38 0 -24 -4 -29 -27 -32 -16 -2 -28 -7 -28 -12 0 -5
-19 -15 -41 -22 -37 -11 -43 -10 -55 7 -8 10 -14 24 -14 31 0 16 -85 35 -134
29 -22 -2 -65 -17 -96 -34 -52 -27 -59 -28 -73 -14 -9 9 -23 13 -32 9 -27 -10
-1 -32 47 -40 47 -8 78 -30 78 -56 0 -9 4 -20 9 -25 5 -6 11 -23 13 -40 3 -28
6 -30 51 -33 54 -4 77 9 77 43 0 18 4 22 20 18 16 -4 20 -1 18 18 -4 34 28 36
93 4 30 -14 63 -24 74 -21 16 4 23 -2 32 -31 10 -32 9 -39 -5 -50 -15 -11 -15
-14 -2 -23 21 -14 30 -12 36 5 7 18 94 78 102 70 3 -3 1 -10 -6 -17 -8 -8 -6
-17 5 -35 10 -14 12 -28 7 -31 -5 -4 -16 -20 -24 -37 -15 -30 -73 -95 -86 -95
-3 0 -4 6 -1 14 3 8 -3 22 -14 32 -18 17 -20 16 -44 -6 -16 -15 -30 -20 -42
-16 -16 7 -16 9 7 26 l25 20 -27 0 c-15 0 -30 -4 -33 -10 -6 -10 -91 -50 -106
-50 -5 0 -6 7 -3 15 4 8 2 15 -4 15 -6 0 -12 -5 -14 -11 -2 -7 -15 -2 -31 13
-29 27 -26 38 9 38 33 0 54 10 54 26 0 8 -10 14 -25 14 -14 0 -29 8 -35 20
-13 23 -45 27 -54 5 -3 -9 -18 -15 -37 -15 -24 0 -30 -4 -25 -15 3 -9 -1 -18
-9 -22 -13 -5 -13 -10 5 -40 25 -42 25 -40 -6 -47 -17 -5 -35 -1 -50 9 -41 27
-138 15 -119 -15 5 -8 24 -11 57 -8 27 3 51 2 53 -2 6 -10 -62 -40 -91 -40
-16 0 -28 -8 -36 -25 -6 -14 -17 -25 -25 -25 -7 0 -22 -9 -33 -20 -22 -22 -51
-26 -81 -10 -30 17 -23 33 11 25 41 -9 38 0 -7 24 -21 11 -32 20 -25 21 17 0
15 25 -4 41 -10 8 -35 19 -58 24 -30 7 -42 16 -44 32 -2 13 -13 24 -28 27 -15
4 -24 14 -24 25 0 11 -11 28 -25 39 -28 22 -23 32 17 32 15 0 28 5 28 10 0 6
-38 10 -92 10 -97 0 -132 10 -111 31 9 9 1 17 -33 35 -25 13 -53 24 -62 23
-10 0 -6 -5 11 -11 34 -12 36 -31 2 -22 -16 4 -34 0 -50 -10 -13 -9 -33 -16
-44 -16 -30 0 -37 22 -13 38 12 8 22 18 22 23 0 18 -74 58 -96 53 -22 -6 -22
-5 -9 33 12 34 18 39 56 45 23 4 47 12 52 17 15 15 -61 42 -99 35 -46 -8 -132
15 -140 38 -8 26 -23 22 -30 -7 -5 -18 -13 -25 -33 -26 -14 0 -35 -4 -46 -8
-11 -5 -28 -4 -37 1 -11 5 -25 5 -38 -2 -32 -17 -23 -30 19 -30 22 0 43 -5 47
-12 12 -19 -28 -40 -69 -35 -26 4 -44 0 -58 -12 -25 -20 -16 -31 49 -51 40
-13 44 -12 58 8 19 27 45 28 69 3 10 -12 33 -21 58 -23 45 -3 60 -25 36 -54
-10 -13 -16 -11 -39 11 -29 28 -55 31 -182 21 -49 -3 -76 -11 -99 -28 l-31
-23 29 -3 c23 -2 34 -11 46 -37 15 -32 15 -35 -1 -44 -34 -18 -153 -43 -177
-37 -14 4 -43 3 -66 0 -36 -6 -39 -8 -25 -22 10 -10 35 -16 70 -16 30 -1 57
-4 61 -8 9 -9 -26 -48 -44 -48 -11 0 -12 -3 -4 -11 9 -9 7 -16 -9 -29 -19 -15
-20 -20 -10 -50 7 -18 12 -37 12 -41 0 -16 -70 -10 -76 6 -9 22 -33 18 -43 -7
-6 -16 -4 -26 7 -34 11 -8 12 -15 3 -31 -8 -17 -8 -22 4 -27 17 -6 20 -42 5
-51 -6 -3 -8 -16 -5 -28 4 -17 -3 -27 -31 -44 -43 -28 -56 -29 -52 -5 1 10 -5
29 -14 43 -11 17 -13 31 -7 40 14 22 11 29 -11 29 -13 0 -20 7 -20 20 0 19
-40 63 -105 118 -32 26 -37 27 -75 7 -29 -15 -30 -15 -30 10 0 40 29 77 53 69
16 -5 19 -3 14 11 -4 9 -7 19 -7 21 0 2 -9 4 -20 4 -30 0 -37 28 -11 46 26 19
28 37 2 29 -15 -5 -18 -2 -14 14 3 13 -1 21 -15 25 -32 10 -72 46 -72 64 0 8
10 26 22 39 29 31 15 43 -55 46 -30 1 -59 5 -62 9 -4 4 -31 18 -61 33 -41 20
-63 40 -90 80 -40 60 -39 91 2 101 34 9 31 34 -4 34 -19 0 -38 10 -55 30 -17
18 -37 30 -52 30 -14 0 -25 2 -25 5 0 9 51 55 62 55 6 0 3 9 -7 20 -11 12 -31
20 -50 20 -48 0 -92 18 -110 47 -14 21 -23 24 -53 20 -21 -2 -51 -10 -69 -18
-34 -14 -54 -6 -35 13 18 18 15 25 -13 32 -26 7 -32 20 -15 31 17 11 11 23
-16 29 -37 10 -61 -1 -68 -30 -7 -25 -9 -25 -89 -24 -45 0 -94 0 -109 0 -16 0
-35 -1 -43 -1 -8 0 -23 0 -32 0 -17 0 -64 7 -110 17 -20 4 -21 7 -11 30 10 21
9 27 -3 35 -39 25 -114 -2 -149 -54 -27 -39 -34 -41 -122 -38 -53 3 -123 -6
-258 -30 -122 -22 -165 -33 -172 -43 -4 -6 -23 -9 -43 -7 -22 1 -43 -3 -53
-12 -24 -21 -54 -28 -71 -17 -20 12 -52 -6 -45 -25 5 -11 -1 -15 -19 -15 -14
0 -28 4 -31 9 -4 5 -29 -2 -56 -15 -27 -13 -61 -24 -75 -24 -29 0 -101 29
-154 62 -25 15 -71 -7 -71 -34 0 -19 -74 -57 -152 -79 -22 -6 -51 -21 -63 -33
-24 -24 -91 -41 -100 -25 -4 5 -11 9 -16 9 -6 0 -8 -4 -5 -9 3 -5 -12 -21 -34
-36 -31 -21 -48 -26 -80 -23 -22 2 -40 0 -40 -4 0 -5 4 -8 8 -8 5 0 16 -6 26
-13 14 -10 1 -13 -77 -13 -52 -1 -106 -4 -120 -8 -16 -4 -27 -2 -27 4 0 17
-25 11 -43 -11 -16 -18 -25 -20 -75 -14 -33 4 -76 2 -102 -5 -25 -6 -55 -14
-67 -17 -13 -3 -31 -2 -40 2 -10 4 -47 8 -83 10 -50 1 -75 -3 -110 -20 -25
-12 -84 -28 -130 -34 -90 -13 -177 -38 -186 -52 -3 -5 -18 -9 -35 -9 -19 0
-40 -11 -61 -30 -17 -16 -37 -30 -45 -30 -8 0 -25 -11 -38 -24 -13 -14 -33
-27 -44 -31 -12 -4 -17 -12 -14 -24 3 -11 -5 -28 -20 -42 -29 -28 -42 -64 -27
-74 13 -8 13 -62 0 -70 -5 -3 -10 -15 -10 -26 0 -18 -4 -20 -31 -14 -24 5 -30
4 -27 -6 2 -7 15 -16 29 -20 l24 -6 -27 -11 c-32 -13 -35 -24 -13 -42 22 -18
18 -46 -7 -64 -12 -9 -19 -16 -14 -16 5 0 1 -9 -8 -19 -17 -18 -17 -20 2 -30
28 -15 35 -72 10 -79 -21 -5 -24 -18 -6 -24 18 -6 -19 -25 -57 -29 -27 -4 -30
-1 -27 21 3 20 1 23 -9 13 -7 -7 -26 -13 -41 -13 -35 0 -37 -17 -2 -26 17 -4
23 -11 19 -21 -3 -11 -1 -13 10 -9 10 4 15 -1 15 -14 0 -25 -14 -25 -49 0 -23
18 -32 19 -55 10 -18 -7 -33 -7 -40 -1 -7 6 -20 3 -36 -9 -15 -12 -41 -20 -66
-20 -22 0 -44 -3 -48 -7 -4 -4 -22 -6 -40 -5 -19 2 -51 -4 -72 -14 -22 -9 -61
-20 -88 -23 -59 -7 -79 -30 -53 -59 30 -33 22 -52 -24 -52 -31 0 -42 4 -46 18
-3 14 -15 18 -59 18 -37 1 -54 -3 -54 -11 0 -7 -21 -20 -47 -29 -45 -15 -49
-15 -61 1 -11 15 -10 18 5 21 63 10 66 12 49 31 -9 10 -16 23 -16 30 0 8 -7
10 -20 6 -11 -3 -28 -2 -37 4 -16 9 -14 11 14 23 30 13 29 14 -43 15 -60 1
-85 6 -132 29 -31 16 -60 33 -63 37 -7 9 -79 -1 -79 -12 0 -3 7 -15 15 -25 14
-18 12 -21 -22 -32 -40 -14 -54 -11 -35 8 14 14 16 28 3 28 -5 0 -14 -13 -21
-30 -14 -35 -40 -39 -58 -10 -11 18 -9 22 13 32 13 6 27 18 30 27 12 34 34 54
48 43 16 -13 42 1 32 18 -4 6 -16 9 -26 7 -12 -3 -19 0 -18 6 4 21 -20 67 -34
67 -21 0 -28 -12 -16 -26 15 -19 -37 -31 -63 -15 -10 6 -23 9 -29 6 -5 -4 -28
14 -52 39 -23 25 -51 46 -61 46 -10 0 -20 9 -23 20 -3 11 -9 20 -14 20 -30 0
27 -74 90 -116 28 -19 58 -48 66 -64 9 -17 22 -30 31 -30 9 0 14 -7 12 -17 -5
-25 -74 -40 -96 -20 -16 14 -58 24 -127 31 -16 1 -47 -6 -67 -17 -33 -18 -42
-19 -77 -8 -35 10 -42 17 -51 52 -9 33 -15 40 -30 36 -25 -6 -48 19 -32 35 21
21 13 34 -21 34 -18 0 -53 10 -77 22 -24 12 -46 20 -48 17 -2 -2 9 -22 26 -43
17 -22 36 -51 41 -65 6 -14 21 -31 34 -39 60 -33 107 -69 107 -83 0 -8 -3 -14
-7 -14 -5 1 -18 1 -30 0 -31 -1 -29 -21 1 -21 14 0 28 -4 31 -10 3 -6 -5 -10
-19 -10 -29 0 -43 -15 -20 -24 31 -12 64 -7 58 9 -4 10 0 15 11 15 24 0 55
-19 55 -34 0 -8 9 -16 20 -19 25 -6 17 -34 -14 -48 -11 -5 -28 -14 -37 -20
-22 -16 -70 -3 -76 22 -4 15 -8 17 -19 8 -15 -12 -29 -5 -29 14 0 15 -71 28
-108 21 -22 -5 -26 -9 -17 -19 14 -16 -6 -33 -22 -17 -12 12 -76 -18 -138 -65
-36 -28 -46 -31 -48 -19 -5 21 -19 20 -31 -3 -6 -10 -24 -21 -41 -25 -53 -10
-170 -123 -170 -164 0 -4 16 -16 35 -25 30 -15 34 -20 26 -36 -21 -39 -12
-208 13 -247 18 -27 21 -55 6 -70 -6 -6 -7 -23 -4 -40 7 -33 65 -77 89 -68 8
4 15 1 15 -5 0 -6 -9 -11 -20 -11 -13 0 -20 -7 -20 -20 0 -14 -11 -25 -30 -34
-23 -9 -27 -15 -18 -24 9 -9 9 -12 -3 -12 -8 0 -2 -10 16 -25 17 -13 24 -24
18 -25 -28 0 -11 -20 17 -20 35 0 41 -17 7 -22 -27 -4 -29 -31 -2 -36 11 -2
28 -11 38 -20 16 -15 16 -16 0 -35 -14 -16 -15 -19 -3 -15 8 3 23 2 33 -1 17
-6 17 -8 -2 -33 -29 -36 -27 -56 7 -60 19 -2 28 -9 30 -25 2 -13 13 -24 28
-27 18 -5 24 -12 20 -22 -3 -9 -6 -20 -6 -25 0 -6 -5 -7 -10 -4 -17 10 -11
-10 8 -28 9 -8 31 -28 47 -44 40 -37 88 -55 155 -57 47 -1 55 -4 52 -19 -2 -9
4 -20 13 -23 22 -9 75 15 69 31 -3 7 3 15 13 18 16 4 16 5 1 6 -19 1 -26 21
-7 21 5 0 15 14 20 30 11 31 13 31 102 34 12 1 25 5 28 10 4 4 16 3 28 -3 18
-10 19 -15 10 -32 -6 -11 -8 -27 -5 -34 7 -19 72 -30 101 -17 16 7 26 7 34 -1
17 -17 13 -29 -10 -25 -13 2 -26 -5 -33 -15 -9 -15 -6 -22 22 -45 18 -15 32
-33 32 -39 0 -7 11 -13 24 -13 27 0 45 -18 28 -29 -10 -6 11 -18 62 -35 15 -5
16 -9 6 -21 -16 -19 -14 -21 35 -29 36 -6 43 -4 69 23 l28 29 -53 29 -54 28
50 5 c33 3 49 9 47 18 -3 19 53 15 71 -6 10 -10 17 -22 17 -27 0 -5 7 -17 17
-27 15 -17 15 -18 -1 -18 -9 0 -14 -4 -11 -10 8 -14 61 -13 101 2 25 9 39 9
59 0 15 -7 25 -8 25 -2 0 6 5 10 10 10 15 0 12 -26 -4 -39 -8 -6 -29 -14 -47
-16 -19 -2 -39 -11 -45 -19 -6 -9 -19 -13 -32 -9 -18 4 -20 8 -11 20 10 12 5
13 -32 7 -24 -4 -54 -11 -67 -15 -13 -5 -34 -6 -48 -3 -28 7 -55 -11 -47 -32
4 -10 10 -11 25 -3 11 6 36 8 55 4 30 -5 34 -9 29 -29 -8 -33 4 -39 29 -16 27
25 90 40 83 19 -2 -8 -14 -15 -26 -17 -24 -4 -29 -17 -11 -28 6 -3 8 -15 6
-26 -4 -14 2 -22 20 -29 26 -10 26 -10 6 -24 -11 -8 -33 -14 -49 -14 -89 3
-124 -3 -124 -22 0 -12 7 -19 20 -19 26 0 25 -14 -3 -33 -22 -15 -22 -15 8
-10 67 10 77 14 71 28 -3 8 -1 17 4 20 6 4 10 3 10 -2 0 -4 11 -13 25 -20 22
-10 27 -8 35 8 6 11 21 19 35 19 28 0 34 17 10 26 -12 5 -13 9 -4 20 10 12 14
12 29 -1 16 -14 18 -14 24 0 5 14 8 14 31 -1 30 -19 55 -12 55 16 0 18 6 20
56 20 36 0 61 5 70 15 18 17 90 10 111 -11 17 -17 -16 -47 -37 -34 -16 10 -59
3 -75 -12 -7 -7 4 -8 30 -5 40 5 135 -18 135 -33 0 -5 -13 -13 -30 -19 -34
-11 -40 -31 -10 -31 11 0 23 0 28 0 4 0 7 4 7 9 0 25 22 31 40 11 10 -11 24
-20 32 -20 7 0 18 -11 23 -25 6 -16 17 -25 30 -25 12 0 18 -4 15 -10 -10 -16
-52 -12 -59 6 -7 18 -28 9 -24 -12 2 -8 -8 -20 -21 -27 -29 -14 -39 -37 -17
-37 9 0 16 -6 16 -13 0 -8 10 -13 22 -13 16 1 23 -5 23 -19 0 -13 10 -22 33
-29 21 -6 31 -14 28 -22 -3 -7 -1 -16 4 -19 6 -4 10 3 10 14 0 30 38 27 52 -4
9 -19 14 -22 24 -14 8 6 27 9 44 7 16 -3 30 -1 30 4 0 4 6 8 14 8 7 0 19 7 26
15 17 20 96 20 103 0 7 -18 -6 -27 -27 -19 -9 4 -31 -7 -53 -25 -24 -20 -49
-31 -68 -31 -17 0 -36 -5 -42 -11 -8 -8 -20 -8 -45 0 -18 6 -46 9 -63 7 -57
-7 -88 30 -42 52 20 10 21 11 2 11 -11 1 -33 -8 -49 -18 -27 -18 -31 -18 -53
-4 -19 13 -27 13 -32 4 -5 -7 -15 -9 -26 -5 -14 6 -17 4 -12 -9 5 -12 1 -17
-13 -17 -11 0 -20 -7 -20 -15 0 -8 -9 -15 -20 -15 -14 0 -18 5 -13 17 6 14 -1
15 -57 10 -35 -4 -68 -11 -73 -16 -4 -4 15 -18 44 -29 56 -24 89 -28 89 -12 0
13 67 13 75 0 3 -6 -1 -13 -10 -16 -12 -5 -13 -10 -5 -20 8 -9 8 -18 1 -33
-15 -27 -14 -31 9 -31 11 0 20 -3 20 -8 0 -4 18 -6 40 -4 24 3 40 0 40 -7 0
-5 20 -22 45 -37 45 -26 51 -34 38 -48 -5 -4 -9 -11 -9 -14 -8 -39 -19 -50
-54 -56 -21 -3 -40 -10 -42 -16 -1 -5 -13 -7 -25 -4 -20 6 -20 7 -5 36 13 23
14 32 5 35 -7 3 -13 12 -13 20 0 14 -3 13 -21 -3 -20 -18 -21 -37 -4 -90 5
-15 1 -23 -17 -31 -13 -7 -17 -12 -9 -12 9 -1 10 -5 3 -13 -15 -19 4 -58 27
-58 11 0 23 -4 26 -10 3 -5 15 -10 26 -10 10 0 19 -7 19 -15 0 -12 -11 -15
-45 -13 -26 1 -45 6 -45 13 0 11 -59 60 -65 53 -1 -1 -6 -18 -10 -36 -5 -24
-3 -33 9 -38 9 -3 16 -13 16 -21 0 -9 6 -13 15 -9 20 7 45 -3 45 -19 0 -17 38
-24 68 -11 12 5 25 20 28 33 4 13 15 28 26 34 18 10 18 11 -3 28 -15 12 -19
20 -11 25 7 4 12 2 12 -3 0 -22 16 -10 38 30 18 31 28 40 43 36 14 -4 19 0 19
13 0 11 5 22 11 25 6 4 8 13 6 19 -8 19 29 36 63 30 16 -4 30 -10 30 -15 0
-13 45 -11 74 2 19 9 29 9 39 1 20 -17 97 -27 97 -13 0 6 -10 11 -22 11 -17 0
-19 3 -9 9 7 5 11 13 7 19 -7 12 16 22 50 22 17 0 24 6 24 19 0 11 -4 22 -9
25 -5 4 -7 -3 -4 -14 4 -16 0 -20 -21 -20 -15 0 -36 -5 -46 -10 -15 -8 -24 -5
-44 14 -30 31 -20 41 52 49 68 8 78 14 57 37 -22 24 -10 29 47 21 26 -4 51 -4
56 1 14 14 42 -2 42 -23 0 -10 5 -19 10 -19 14 0 13 43 -1 57 -31 31 49 39 92
9 14 -9 42 -16 69 -16 38 1 42 2 25 12 -11 6 -21 11 -21 12 -1 1 -5 12 -9 24
-6 20 -4 23 12 20 11 -2 24 6 36 24 22 36 21 38 -4 38 -12 0 -19 5 -17 13 8
22 35 19 62 -7 19 -20 35 -26 71 -26 25 0 45 5 45 10 0 6 -23 10 -51 10 -42 0
-50 3 -45 16 3 9 2 12 -4 9 -6 -4 -19 4 -29 16 l-18 23 -28 -22 c-28 -22 -102
-32 -90 -12 3 6 0 10 -9 10 -8 0 -22 3 -31 6 -9 4 -15 2 -13 -3 2 -5 -10 -21
-27 -36 l-30 -26 29 -1 c56 0 -10 -33 -87 -44 -10 -1 -22 -8 -26 -14 -7 -11
-61 -10 -81 3 -6 3 -20 3 -32 -1 l-23 -7 23 -8 c12 -5 29 -6 37 -3 8 4 15 1
15 -5 0 -6 -8 -11 -17 -11 -9 0 -25 -8 -35 -17 -15 -13 -23 -15 -36 -6 -10 6
-32 14 -50 17 -26 6 -36 3 -55 -18 -14 -14 -34 -26 -47 -26 -37 0 -117 33
-130 53 -11 18 -10 19 7 12 10 -5 30 -8 45 -7 15 1 30 -3 33 -9 4 -5 12 -6 18
-2 6 4 43 12 82 18 68 11 69 12 41 24 -22 9 -37 9 -63 0 -26 -8 -38 -8 -46 0
-8 8 -5 11 11 11 23 0 30 16 11 22 -7 2 1 12 15 22 26 17 29 17 47 0 10 -9 19
-12 19 -6 0 6 -4 14 -10 17 -20 12 -9 23 38 35 26 8 50 18 53 23 4 5 43 10 88
11 63 1 84 -2 91 -14 8 -13 13 -13 37 0 35 20 37 45 3 46 -47 1 -60 4 -60 12
0 14 174 2 185 -13 6 -7 22 -11 37 -8 14 3 43 -4 66 -15 39 -19 42 -19 56 -3
23 25 20 40 -10 52 -21 7 -32 6 -52 -7 -21 -14 -27 -15 -36 -3 -6 8 -20 13
-31 11 -12 -1 -25 6 -33 18 -11 17 -10 20 7 20 11 0 22 -4 25 -9 11 -17 48 0
43 20 -5 19 17 29 64 29 14 0 34 9 43 19 23 25 95 33 119 13 15 -14 19 -13 39
4 20 18 21 18 15 1 -4 -10 -7 -25 -7 -32 0 -18 -52 -35 -73 -23 -23 12 -63 0
-48 -15 8 -8 14 -8 22 0 8 8 20 6 45 -9 28 -16 32 -23 21 -32 -7 -6 -21 -23
-30 -38 -14 -22 -15 -28 -4 -28 19 0 188 36 210 45 21 9 23 35 1 35 -10 0 -14
6 -11 14 9 24 -30 26 -46 3 l-13 -20 -32 23 -32 23 22 36 c30 50 42 62 66 64
25 1 27 8 10 25 -8 8 -5 14 15 23 15 7 27 18 27 24 0 7 7 18 15 25 19 16 19
59 0 66 -8 4 -12 10 -9 16 3 5 15 3 28 -6 17 -11 36 -12 77 -6 l54 7 -32 14
c-26 11 -32 18 -27 34 4 11 6 22 6 25 0 24 -5 27 -47 22 -30 -3 -45 -1 -45 7
0 6 6 11 14 11 7 0 20 10 28 22 13 19 18 20 46 10 19 -6 32 -7 32 -1 0 11 21
12 39 0 12 -8 12 -12 2 -25 -8 -9 -10 -16 -7 -16 4 0 2 -9 -4 -20 -9 -17 -8
-20 10 -20 22 0 26 -20 9 -52 -16 -29 9 -44 33 -18 9 10 36 21 60 25 57 9 93
32 79 49 -13 15 12 42 44 48 14 2 21 -3 23 -20 4 -24 22 -31 22 -8 0 15 24 28
34 19 3 -4 6 -15 6 -25 0 -11 7 -32 15 -48 13 -25 13 -30 2 -30 -8 0 -26 9
-41 21 l-26 20 -26 -20 c-15 -12 -32 -21 -38 -21 -6 0 -17 -9 -24 -20 -11 -17
-10 -20 7 -20 27 0 72 -21 66 -31 -6 -9 51 -59 68 -60 7 0 3 -4 -8 -8 -11 -5
-28 -4 -39 1 -12 7 -22 6 -29 -1 -8 -8 -6 -11 8 -11 16 -1 15 -4 -8 -16 -24
-13 -26 -18 -16 -30 8 -10 21 -13 37 -9 17 4 30 0 43 -14 18 -19 18 -20 0 -26
-29 -9 -86 -69 -83 -87 2 -9 -1 -19 -7 -22 -6 -4 -8 -20 -4 -36 4 -23 -1 -38
-21 -64 -33 -44 -33 -52 2 -26 23 17 33 19 56 10 19 -7 33 -7 47 0 22 12 26
50 4 50 -8 0 -12 6 -9 13 3 10 -5 12 -31 9 -39 -5 -39 -4 -25 32 6 15 17 26
29 26 10 0 24 7 31 15 7 8 27 15 44 15 44 0 77 11 75 24 -4 35 17 42 64 21 13
-5 28 -1 47 14 16 11 34 21 39 21 18 0 23 -21 10 -37 -29 -34 65 -60 101 -28
19 17 147 28 156 14 3 -5 13 -9 23 -9 23 0 51 -30 30 -30 -8 -1 -4 -6 9 -13
15 -9 19 -16 12 -23 -8 -8 -6 -15 5 -24 8 -7 15 -19 15 -26 0 -18 14 -18 30 1
16 19 70 19 96 1 11 -9 30 -12 47 -9 20 4 27 2 27 -11 0 -11 9 -16 29 -16 33
0 49 -15 26 -24 -21 -8 -19 -38 4 -67 25 -32 10 -53 -44 -63 -22 -4 -45 -12
-52 -17 -7 -7 -14 -6 -18 1 -10 16 -38 12 -32 -4 3 -8 -1 -20 -9 -27 -9 -8
-13 -21 -10 -35 5 -19 1 -23 -29 -28 -20 -4 -40 -4 -46 -1 -11 8 -39 -12 -39
-27 0 -6 13 -8 31 -4 25 5 30 3 25 -9 -4 -11 2 -15 23 -15 16 0 31 -7 35 -15
3 -8 14 -15 25 -15 25 0 37 -18 17 -26 -9 -3 -16 -12 -16 -20 0 -7 -8 -18 -17
-24 -15 -9 -14 -10 9 -6 15 4 30 2 33 -4 3 -5 14 -10 24 -10 10 0 24 -6 30
-14 21 -25 60 -28 87 -7 14 11 31 18 39 15 18 -7 26 -43 14 -66 -6 -12 -6 -18
0 -18 6 0 8 -12 5 -28 -6 -32 5 -45 51 -57 27 -8 28 -9 8 -12 -13 -3 -23 -8
-23 -13 0 -5 -10 -10 -22 -12 -20 -3 -18 -6 15 -22 44 -21 48 -52 7 -49 -24 2
-24 2 3 -9 27 -12 40 -32 13 -22 -8 3 -25 0 -37 -7 -17 -9 -24 -9 -27 0 -2 6
-8 9 -13 6 -5 -3 -18 -1 -30 5 -24 13 -41 4 -19 -10 8 -6 39 -17 69 -25 29 -9
51 -18 49 -21 -4 -4 -48 3 -136 22 -16 3 -21 1 -17 -7 4 -6 2 -15 -5 -19 -10
-6 -8 -16 8 -42 l22 -33 0 33 c0 31 1 32 41 32 35 0 40 -2 34 -19 -3 -11 -1
-23 6 -26 8 -6 7 -10 -2 -17 -11 -7 -11 -11 -1 -15 21 -8 13 -33 -13 -43 -14
-5 -25 -14 -25 -20 0 -5 -8 -10 -17 -10 -17 -1 -17 -1 0 -11 21 -12 23 -33 2
-26 -8 4 -17 2 -20 -3 -4 -6 -14 -10 -23 -10 -17 0 -35 -31 -48 -83 -5 -21 -3
-27 10 -27 9 0 16 6 16 13 1 6 10 23 20 36 20 24 22 24 95 5 16 -4 24 3 38 36
16 37 21 41 42 36 37 -9 30 6 -14 34 -31 19 -38 27 -31 40 5 9 7 26 4 37 -3
12 -1 30 5 42 13 24 51 29 51 7 0 -27 20 -28 51 -2 17 14 37 26 46 26 13 0 13
3 3 15 -7 8 -9 15 -4 15 4 0 -3 11 -16 24 -15 17 -21 33 -18 50 3 15 -1 31 -8
37 -8 6 -11 16 -8 21 4 6 1 14 -7 18 -19 12 5 38 38 42 39 5 42 28 3 28 -27 0
-30 3 -25 20 4 14 1 22 -10 26 -9 4 -14 13 -11 21 4 9 -1 17 -14 20 -21 6 -26
18 -11 27 5 3 7 15 4 25 -3 10 0 22 6 25 6 4 11 16 11 27 0 10 6 28 13 39 10
17 9 22 -2 30 -12 7 -12 11 -2 24 12 14 10 16 -7 16 -33 0 -36 19 -5 30 15 6
38 16 51 22 18 10 25 9 31 -1 10 -15 94 -33 116 -25 8 4 15 12 15 20 0 17 95
20 105 4 11 -18 23 -11 18 10 -4 17 -1 20 23 19 38 0 116 -32 123 -50 13 -31
56 -69 78 -69 26 0 60 15 81 37 16 16 36 17 63 3 30 -16 23 -26 -16 -22 -28 3
-35 1 -35 -13 0 -13 8 -16 34 -14 19 2 38 0 41 -3 4 -4 22 1 41 9 27 13 38 14
59 5 17 -8 32 -9 44 -3 48 26 136 -45 106 -85 -10 -15 -16 -16 -27 -6 -8 6
-18 9 -22 4 -4 -4 -12 1 -17 11 -6 9 -22 17 -36 17 l-27 0 34 -35 c30 -31 40
-35 85 -35 39 0 56 -5 70 -20 16 -18 16 -20 2 -20 -10 0 -17 -4 -17 -10 0 -5
6 -10 13 -10 8 0 7 -3 -3 -10 -12 -8 -12 -10 2 -15 10 -4 21 -4 27 -1 5 4 13
-3 16 -15 4 -12 12 -18 21 -15 21 8 17 -12 -6 -24 -24 -13 -16 -45 9 -34 9 3
25 9 36 11 20 5 20 5 1 -9 -14 -11 -16 -17 -7 -23 7 -4 18 -2 24 4 19 19 34
12 47 -19 7 -17 16 -30 21 -30 13 0 11 14 -2 27 -9 9 -5 14 17 19 16 3 48 16
71 27 38 18 46 19 68 7 14 -7 28 -10 32 -5 5 4 2 10 -4 12 -20 7 -15 23 7 23
11 0 20 5 20 12 0 8 6 7 16 -4 13 -12 14 -20 5 -37 -15 -27 1 -34 64 -29 44 3
60 -7 30 -18 -8 -4 -15 -11 -15 -16 0 -7 4 -7 13 0 17 14 97 26 97 14 0 -5 -9
-12 -21 -15 -31 -8 -13 -28 19 -21 26 5 26 5 8 -10 -11 -9 -23 -16 -28 -16 -4
0 -8 -5 -8 -11 0 -5 5 -7 11 -4 6 4 26 4 45 0 28 -5 34 -10 29 -24 -5 -15 -1
-17 21 -13 23 4 25 2 19 -17 -5 -16 -3 -20 9 -15 23 9 20 35 -4 41 -28 7 -25
23 4 23 41 0 75 -50 44 -64 -7 -3 6 -3 30 0 27 4 48 1 57 -6 8 -7 26 -10 40
-8 16 3 25 1 25 -7 0 -7 9 -15 20 -18 11 -3 20 -10 20 -17 0 -17 -88 -2 -128
22 -27 16 -35 18 -48 7 -12 -10 -12 -14 -2 -20 11 -7 11 -9 0 -9 -7 0 -11 -4
-7 -10 3 -5 13 -6 22 -3 9 4 21 -1 29 -12 7 -10 20 -15 29 -12 34 14 13 -22
-26 -42 -38 -20 -66 -20 -54 0 4 5 -8 9 -24 9 -24 0 -31 4 -31 19 0 24 -25 45
-45 37 -21 -8 -19 -32 5 -49 11 -8 17 -17 14 -20 -4 -4 -2 -13 5 -21 9 -11 5
-19 -19 -39 -16 -14 -30 -28 -30 -31 0 -13 20 -5 40 16 23 25 40 17 19 -9 -13
-17 -13 -17 7 -1 37 32 124 13 124 -28 0 -15 25 -20 34 -6 3 5 -4 23 -15 41
-15 24 -24 31 -39 26 -14 -5 -20 -2 -20 9 0 9 5 16 11 16 6 0 23 9 37 20 19
15 34 19 56 14 25 -5 29 -4 19 7 -32 33 5 31 38 -2 14 -14 32 -16 123 -12 58
3 106 3 106 0 0 -18 -43 -28 -72 -18 -41 15 -45 9 -14 -22 23 -23 33 -26 103
-25 63 1 82 5 97 21 16 16 28 19 75 14 52 -5 59 -4 91 24 33 28 34 30 16 44
-10 8 -16 21 -13 29 13 33 147 80 161 57 9 -13 36 -15 36 -2 0 5 -10 11 -22
13 -13 2 -24 11 -26 21 -3 12 5 19 28 24 17 3 34 12 37 19 7 19 28 18 43 -1
19 -23 94 -16 98 8 6 31 40 57 73 57 27 0 30 2 19 15 -17 20 -45 19 -78 -4
-31 -22 -92 -35 -92 -21 0 6 -7 10 -15 10 -21 0 -19 13 5 35 11 10 17 21 15
25 -3 4 2 10 10 14 8 3 15 12 15 21 0 9 9 15 25 15 14 0 25 5 25 11 0 5 6 7
12 3 23 -15 63 -9 79 11 17 20 17 20 55 0 54 -27 65 -28 204 -22 46 3 55 6 55
22 0 12 -9 21 -25 25 -24 6 -24 6 9 18 19 7 44 12 57 12 13 0 26 5 29 10 6 10
-64 16 -143 11 -39 -2 -47 2 -78 35 -39 43 -39 44 -19 70 14 18 14 18 15 -8 0
-29 17 -37 37 -17 8 8 17 7 34 -5 13 -9 37 -15 54 -15 16 1 23 3 14 6 -16 4
-44 82 -33 92 2 2 15 -1 28 -9 14 -7 32 -10 42 -6 16 6 16 8 0 25 -15 16 -15
19 2 34 10 10 32 17 48 17 16 0 53 7 83 15 47 12 58 12 90 -1 19 -8 42 -21 51
-28 25 -22 56 -24 80 -6 l23 17 -34 11 c-19 6 -43 12 -54 14 -16 3 -12 8 21
26 35 18 44 30 58 72 9 28 14 55 12 59 -7 11 -123 24 -137 16 -7 -5 -5 -13 6
-25 18 -19 14 -24 -26 -34 -30 -7 -45 13 -26 33 9 10 8 15 -5 25 -26 19 -22
26 15 27 l32 1 -29 10 c-26 9 -31 7 -57 -23 -23 -26 -28 -40 -23 -62 5 -24 3
-27 -19 -27 -16 0 -26 -7 -30 -20 -4 -14 -14 -20 -34 -20 -16 0 -33 4 -39 9
-5 5 -20 11 -34 13 l-25 4 27 12 c30 13 47 57 29 75 -21 21 -12 55 18 70 25
12 29 12 39 -2 10 -14 13 -14 27 3 15 20 15 20 30 0 14 -19 15 -19 33 4 9 12
31 26 47 30 22 6 31 15 33 34 2 17 14 31 37 44 31 16 39 17 67 5 54 -22 98
-26 98 -8 0 8 12 18 26 21 19 5 24 10 16 18 -12 12 -46 32 -79 47 -13 6 -23
15 -23 21 0 5 -11 10 -25 10 -29 0 -33 14 -7 29 16 10 15 13 -10 35 -16 14
-28 27 -28 29 0 2 25 7 55 11 40 4 63 2 85 -9 36 -19 40 -19 40 0 0 8 -9 15
-20 15 -11 0 -35 8 -54 18 -27 15 -31 21 -22 33 15 21 50 39 76 39 12 0 38 10
60 22 l39 23 45 -22 c36 -18 46 -20 55 -9 6 8 9 21 5 30 -5 12 0 16 23 16 34
0 47 -9 34 -24 -7 -8 6 -11 40 -13 27 0 46 3 43 8 -3 5 -12 9 -20 9 -8 0 -14
5 -14 10 0 6 5 10 11 10 8 0 8 4 0 14 -8 10 -8 21 -1 41 8 21 7 34 -4 56 -8
16 -10 31 -5 35 32 19 -14 25 -69 8 -16 -5 -1 -36 36 -77 23 -24 24 -29 12
-41 -22 -21 -115 -26 -115 -6 0 9 13 17 35 20 l35 6 -35 22 c-39 24 -73 31
-52 10 21 -21 13 -34 -39 -58 -38 -18 -70 -25 -123 -26 -39 0 -78 -4 -87 -8
-10 -4 -20 -3 -23 2 -3 6 -23 8 -45 5 -22 -3 -41 -1 -45 5 -20 33 149 69 199
42 21 -11 28 -10 52 5 l27 18 -22 15 c-32 21 -27 35 12 30 l33 -4 -35 42 c-37
45 -54 56 -119 73 -44 12 -58 31 -23 31 13 0 20 7 20 20 0 13 -7 20 -20 20
-25 0 -80 27 -80 39 0 5 7 14 15 21 20 17 9 30 -26 30 -16 0 -29 5 -29 10 0
20 -42 51 -96 72 -29 11 -54 24 -54 29 0 4 19 10 43 14 59 9 77 15 77 25 0 5
-9 12 -20 15 -13 4 -20 15 -20 31 0 27 6 29 47 14 l28 -10 -24 20 c-22 19 -22
20 -3 20 25 0 48 25 32 35 -6 4 -8 15 -5 26 5 15 1 19 -19 19 -14 0 -28 -4
-31 -10 -3 -5 -17 -10 -30 -10 -19 0 -22 4 -18 21 5 19 3 20 -41 14 -30 -5
-46 -4 -46 3 0 10 21 18 102 37 15 4 32 13 38 20 7 8 33 17 58 21 36 5 42 9
26 14 -30 12 -49 39 -36 52 12 12 82 2 82 -12 0 -6 6 -10 14 -10 8 0 17 -7 20
-16 3 -9 13 -14 21 -10 8 3 17 1 20 -4 4 -6 20 -10 36 -10 35 0 104 -33 117
-56 12 -21 76 -44 102 -37 13 4 20 0 20 -10 0 -8 6 -19 13 -26 9 -7 12 -27 10
-58 -5 -76 2 -93 38 -93 26 0 31 -3 26 -20 -6 -25 18 -27 59 -5 16 8 36 15 44
15 8 0 24 7 34 15 17 13 18 15 3 15 -24 0 -21 12 8 33 28 20 47 15 43 -11 -4
-23 35 -28 56 -7 23 24 70 12 61 -15 -8 -24 29 -47 49 -31 10 8 17 7 26 -3 17
-21 6 -33 -39 -41 -26 -4 -45 -15 -60 -36 l-22 -29 30 -6 c16 -4 32 -13 35
-21 6 -14 -27 -13 -116 3 -48 9 -30 -10 34 -36 72 -30 86 -50 35 -50 -64 0
-97 11 -103 35 -3 12 -11 22 -17 22 -7 -1 -34 9 -60 22 -47 22 -49 22 -62 4
-19 -24 -18 -37 3 -64 16 -18 30 -23 81 -24 66 -2 82 -12 74 -46 -3 -12 3 -26
18 -38 22 -17 22 -19 6 -35 -21 -21 -22 -46 -2 -46 18 0 19 -12 3 -28 -9 -9
-9 -12 2 -12 7 0 34 17 60 39 37 31 51 37 77 34 19 -3 41 2 57 12 26 17 27 17
41 -1 19 -25 19 -27 -5 -47 -11 -9 -20 -23 -20 -30 0 -8 -10 -23 -23 -35 -22
-21 -23 -21 -39 -3 -11 13 -24 18 -37 14 -26 -7 -27 -18 -3 -35 10 -7 22 -25
25 -39 6 -22 3 -26 -11 -25 -10 0 -16 -5 -13 -14 15 -60 16 -60 -27 -60 -26 0
-48 -7 -63 -21 -21 -18 -21 -20 -4 -14 45 16 57 17 78 7 37 -17 56 -22 72 -16
22 9 18 34 -5 34 -11 0 -20 7 -20 15 0 8 5 15 10 15 6 0 10 8 8 17 -2 14 4 18
27 18 17 0 47 8 68 17 70 32 134 2 114 -53 -12 -31 4 -73 34 -89 25 -14 74 3
74 25 0 23 21 31 41 15 8 -7 17 -10 20 -7 11 11 -6 25 -36 32 -44 10 -39 55 8
69 25 8 29 24 7 32 -8 4 -15 13 -15 21 0 10 6 13 16 9 9 -3 31 -6 51 -6 26 0
36 -5 40 -20 6 -21 18 -26 28 -10 3 5 11 7 18 5 7 -3 23 4 37 15 25 19 25 20
3 20 -13 0 -57 9 -99 21 -62 17 -82 19 -102 10 -30 -14 -40 -7 -22 15 12 13
11 17 0 24 -8 5 -17 7 -21 4 -4 -2 -10 0 -14 6 -3 6 4 10 18 10 17 0 36 14 61
45 21 25 35 49 32 54 -7 11 44 22 70 15 12 -3 27 3 38 15 16 18 17 21 3 27 -8
3 -24 1 -36 -5 -27 -15 -34 -14 -27 4 4 10 -1 15 -14 15 -11 0 -20 4 -20 9 0
5 -16 24 -35 43 -22 20 -35 41 -33 53 5 32 36 30 65 -4 15 -17 32 -31 39 -31
6 0 16 -12 23 -26 9 -22 14 -24 26 -14 11 9 12 16 5 25 -7 8 -2 19 15 35 32
30 32 63 0 84 -27 18 -33 36 -12 36 7 0 26 -20 41 -45 25 -39 32 -44 55 -38
22 5 24 4 14 -9 -13 -16 -8 -28 12 -28 16 0 36 46 29 65 -5 12 2 15 29 15 34
0 57 -22 36 -35 -5 -4 4 -22 21 -41 16 -19 30 -41 30 -49 0 -8 4 -15 10 -15
15 0 23 46 11 68 -8 15 -8 23 0 28 7 4 9 21 6 41 -7 38 15 83 38 83 15 0 45
27 45 40 0 5 -10 18 -22 29 -19 18 -19 21 -5 27 18 7 24 34 7 34 -20 0 -10 21
14 30 14 5 29 18 35 28 9 16 6 23 -15 36 -34 23 -22 36 37 36 l49 0 0 41 0 41
38 -5 c20 -3 52 -9 71 -13 32 -6 34 -6 27 19 -5 23 -2 26 49 43 83 26 240 7
220 -26 -9 -15 12 -20 45 -10 22 6 39 6 54 -2 11 -7 50 -15 86 -19 54 -6 68
-11 86 -35 19 -24 25 -26 38 -14 14 11 20 9 41 -16 23 -26 27 -28 47 -15 18
11 23 11 27 0 2 -7 15 -24 28 -37 17 -17 21 -27 14 -40 -8 -14 -4 -19 22 -28
32 -11 52 -49 36 -70 -14 -18 3 -54 32 -70 20 -10 29 -22 29 -39 0 -14 5 -25
10 -25 6 0 10 8 10 18 0 9 9 30 19 46 15 23 17 34 9 49 -5 11 -12 41 -15 68
-4 39 -2 49 10 49 8 0 17 9 20 21 5 18 8 19 29 8 13 -6 32 -19 43 -29 25 -22
144 -33 152 -14 6 16 -24 74 -39 74 -7 0 -25 -12 -40 -27 -26 -25 -42 -21 -16
5 7 7 17 31 24 55 6 23 15 50 19 60 7 16 2 18 -41 17 -27 -1 -59 2 -71 5 -34
11 -28 -6 17 -50 22 -21 40 -44 40 -51 0 -6 -21 -17 -47 -23 -42 -11 -48 -10
-67 9 -17 17 -19 24 -9 39 10 16 9 20 -10 25 -12 3 -32 22 -45 42 -23 35 -23
36 -3 29 35 -11 76 29 78 75 1 34 -2 40 -28 50 -36 15 -37 34 -3 65 14 13 23
29 19 34 -15 25 16 8 54 -29 34 -34 45 -39 71 -34 17 4 36 1 44 -5 9 -8 16 -8
20 -2 4 6 -7 17 -24 26 -32 17 -39 39 -15 49 9 3 27 -7 45 -24 l31 -30 58 29
c52 27 58 33 59 63 0 18 -5 42 -12 53 -18 27 -15 127 3 133 9 3 2 11 -20 21
-23 11 -34 23 -34 38 0 27 -28 58 -91 98 -44 29 -94 81 -94 99 0 3 6 6 13 6 7
0 18 9 25 20 7 11 19 20 27 20 8 0 15 5 15 10 0 6 -12 10 -26 10 -23 0 -25 3
-20 24 6 25 -8 44 -19 26 -3 -5 -10 -10 -16 -10 -14 0 -11 34 6 56 21 28 19
46 -7 42 -18 -2 -24 3 -26 22 -2 14 -11 33 -19 42 -10 11 -14 29 -11 49 8 55
-10 117 -42 139 -16 11 -30 30 -32 42 -2 14 -13 25 -28 29 -21 6 -22 7 -5 9
11 1 45 1 75 0 59 -2 97 -26 126 -81 10 -20 26 -30 66 -39 29 -7 64 -14 78
-15 38 -3 40 -4 40 -19 0 -15 -44 -30 -63 -21 -7 4 -3 -1 7 -9 23 -18 71 -23
144 -14 17 2 15 63 -2 77 -8 7 -34 14 -58 16 -80 7 -120 17 -125 31 -3 8 -12
14 -19 14 -16 0 -33 37 -31 66 2 13 -5 20 -23 22 -14 2 -37 8 -52 13 -18 8
-32 7 -46 0 -18 -9 -21 -8 -24 12 -2 17 -11 23 -43 27 -26 3 -41 11 -43 21 -2
13 10 17 64 23 72 7 99 -3 89 -35 -7 -22 -2 -23 26 -8 26 13 56 3 64 -22 5
-14 11 -17 23 -10 11 6 39 3 79 -7 34 -9 66 -12 70 -8 4 5 2 11 -5 13 -22 8
-72 54 -72 67 0 7 -17 22 -37 34 -99 57 -143 122 -73 107 26 -6 32 -2 54 34
14 21 34 42 46 46 52 16 -2 49 -65 39 -33 -4 -45 -3 -45 6 0 9 -3 10 -13 1 -8
-6 -17 -8 -20 -4 -13 12 -7 34 11 40 9 3 32 17 50 30 l33 24 -31 39 c-29 36
-35 39 -88 42 -56 3 -57 3 -77 46 -15 32 -27 44 -49 49 -16 3 -31 14 -34 25
-5 22 -28 18 -24 -5 4 -23 -13 -29 -42 -16 -25 12 -35 29 -18 29 9 0 32 44 32
59 0 15 -79 63 -95 57 -21 -8 -31 -4 -27 11 2 7 -8 17 -21 22 -33 13 -42 38
-16 46 13 4 31 -2 52 -18 32 -24 91 -57 102 -57 3 0 1 9 -5 21 -16 29 -9 32
28 13 18 -8 38 -14 45 -11 21 7 -53 38 -101 43 -45 5 -85 24 -49 24 58 0 -36
51 -144 79 -37 9 -73 22 -81 29 -8 6 -47 15 -87 18 -39 4 -74 11 -77 15 -3 5
-32 9 -64 9 -37 0 -64 5 -72 14 -10 9 -20 11 -30 5 -11 -6 -24 -2 -44 13 -21
17 -43 23 -83 24 -68 1 -95 -10 -88 -37 6 -24 -21 -39 -33 -19 -9 15 -69 6
-112 -16 -31 -16 -33 -22 -16 -58 9 -21 8 -29 -5 -44 -18 -20 -23 -72 -7 -72
6 0 10 5 10 10 0 17 20 11 57 -17 l35 -27 -21 -17 c-15 -12 -32 -16 -55 -12
-26 4 -39 0 -55 -16 -11 -11 -28 -21 -36 -21 -11 0 -10 -5 6 -21 19 -19 20
-23 6 -36 -18 -18 -37 -9 -37 18 0 15 -7 19 -38 19 -21 0 -47 7 -58 15 -26 20
-41 19 -71 -5 -35 -27 -56 -25 -130 11 -71 35 -96 64 -63 74 26 8 56 63 42 77
-6 6 -37 14 -69 18 -32 4 -48 8 -36 9 29 1 53 27 53 56 0 12 8 33 19 46 18 22
18 24 -1 58 -19 36 -53 71 -68 71 -4 0 -30 -15 -56 -34z"/>
<path d="M6458 5753 c7 -3 16 -2 19 1 4 3 -2 6 -13 5 -11 0 -14 -3 -6 -6z"/>
<path d="M11740 5725 c0 -6 6 -20 14 -30 12 -17 17 -18 52 -6 30 9 46 10 68 1
39 -14 57 3 19 19 -45 18 -153 30 -153 16z"/>
<path d="M10373 5688 c-27 -13 -29 -30 -7 -48 13 -11 19 -10 36 7 12 13 18 28
15 37 -7 18 -13 19 -44 4z"/>
<path d="M8531 5644 l-24 -17 24 -13 c43 -24 129 -16 129 11 0 18 -7 22 -60
30 -34 4 -51 2 -69 -11z"/>
<path d="M10746 5651 c-4 -7 -5 -15 -2 -18 9 -9 19 4 14 18 -4 11 -6 11 -12 0z"/>
<path d="M10866 5607 c-50 -29 -54 -40 -19 -65 23 -16 41 -19 97 -16 38 1 73
7 79 13 8 8 6 11 -6 11 -19 0 -23 16 -6 22 7 2 2 15 -13 31 -32 34 -77 35
-132 4z"/>
<path d="M7835 5570 c-3 -5 -1 -10 4 -10 6 0 11 5 11 10 0 6 -2 10 -4 10 -3 0
-8 -4 -11 -10z"/>
<path d="M12077 5564 c-11 -12 3 -24 29 -24 24 0 32 -14 14 -25 -5 -3 -10 -10
-10 -16 0 -14 28 -11 32 3 4 10 10 10 31 1 15 -7 29 -8 32 -3 6 10 -40 44 -70
52 -11 3 -27 9 -36 12 -8 4 -18 4 -22 0z"/>
<path d="M7650 5510 c0 -5 5 -10 10 -10 6 0 10 5 10 10 0 6 -4 10 -10 10 -5 0
-10 -4 -10 -10z"/>
<path d="M9165 5490 c3 -5 19 -10 36 -10 16 0 29 5 29 10 0 6 -16 10 -36 10
-21 0 -33 -4 -29 -10z"/>
<path d="M8207 5484 c-13 -13 5 -24 41 -24 22 0 32 4 27 9 -14 13 -59 23 -68
15z"/>
<path d="M9281 5481 c-10 -6 -10 -10 -1 -16 13 -8 24 -1 19 14 -3 6 -10 7 -18
2z"/>
<path d="M12270 5450 c0 -5 8 -10 18 -10 10 0 29 -11 42 -25 23 -25 50 -33 50
-16 0 5 -14 21 -31 35 -30 26 -79 35 -79 16z"/>
<path d="M8308 5443 c7 -3 16 -2 19 1 4 3 -2 6 -13 5 -11 0 -14 -3 -6 -6z"/>
<path d="M8610 5390 c0 -30 13 -37 37 -22 10 6 9 13 -3 30 -21 30 -34 27 -34
-8z"/>
<path d="M12326 5392 c-18 -28 48 -88 104 -94 18 -3 23 2 25 30 2 26 -1 32
-17 32 -17 0 -18 3 -8 15 21 26 -17 32 -41 6 -26 -27 -47 -27 -51 2 -2 16 -5
19 -12 9z"/>
<path d="M10805 5380 c28 -12 47 -12 40 0 -3 6 -18 10 -33 9 -24 0 -25 -1 -7
-9z"/>
<path d="M8203 5350 c-35 -14 -27 -20 28 -20 36 0 49 4 47 13 -6 15 -46 19
-75 7z"/>
<path d="M8970 5325 c0 -17 2 -18 24 -9 23 9 20 24 -4 24 -11 0 -20 -7 -20
-15z"/>
<path d="M8347 5317 c-3 -9 1 -21 9 -27 11 -10 14 -10 14 1 0 8 -4 20 -9 27
-7 11 -9 11 -14 -1z"/>
<path d="M9805 5310 c3 -5 16 -10 28 -9 21 0 21 1 2 9 -28 12 -37 12 -30 0z"/>
<path d="M8440 5300 c0 -5 5 -10 10 -10 6 0 10 5 10 10 0 6 -4 10 -10 10 -5 0
-10 -4 -10 -10z"/>
<path d="M9142 5261 c2 -7 7 -12 11 -12 12 1 9 15 -3 20 -7 2 -11 -2 -8 -8z"/>
<path d="M10200 5260 c0 -5 9 -10 19 -10 11 0 23 5 26 10 4 6 -5 10 -19 10
-14 0 -26 -4 -26 -10z"/>
<path d="M9700 5234 c-14 -7 -33 -14 -42 -14 -10 0 -18 -4 -18 -9 0 -5 32 -11
70 -13 39 -2 70 -2 70 0 0 1 -7 14 -16 27 -18 28 -28 29 -64 9z"/>
<path d="M9503 5225 c5 -14 50 -23 65 -12 22 17 13 24 -28 23 -22 0 -39 -5
-37 -11z"/>
<path d="M9078 5215 c-3 -3 -3 -16 0 -30 4 -25 66 -70 83 -60 14 9 11 25 -6
25 -9 0 -18 8 -22 18 -12 35 -42 60 -55 47z"/>
<path d="M12355 5210 c-3 -5 -1 -10 4 -10 6 0 11 5 11 10 0 6 -2 10 -4 10 -3
0 -8 -4 -11 -10z"/>
<path d="M8325 5110 c-3 -5 1 -10 9 -10 9 0 16 5 16 10 0 6 -4 10 -9 10 -6 0
-13 -4 -16 -10z"/>
<path d="M12762 5100 c0 -14 2 -19 5 -12 2 6 2 18 0 25 -3 6 -5 1 -5 -13z"/>
<path d="M3462 5066 c1 -10 8 -17 13 -17 15 1 12 24 -3 29 -9 3 -13 -2 -10
-12z"/>
<path d="M9348 5073 c7 -3 16 -2 19 1 4 3 -2 6 -13 5 -11 0 -14 -3 -6 -6z"/>
<path d="M12742 5048 c-17 -17 -15 -32 6 -51 27 -25 34 -21 30 20 -3 39 -16
51 -36 31z"/>
<path d="M9720 5036 c0 -7 9 -21 21 -32 15 -14 22 -15 28 -6 4 7 15 10 24 6
20 -7 22 5 4 26 -15 19 -77 23 -77 6z"/>
<path d="M9556 5021 c-7 -11 41 -24 56 -15 8 5 5 10 -8 15 -27 11 -42 11 -48
0z"/>
<path d="M10220 5025 c0 -2 15 -12 33 -21 l32 -17 -27 -9 c-16 -6 -28 -13 -28
-18 0 -11 45 -21 63 -14 32 12 26 34 -17 59 -42 25 -56 30 -56 20z"/>
<path d="M12623 4993 c-21 -3 -33 -10 -33 -19 0 -12 4 -13 21 -3 12 6 32 9 46
6 14 -2 22 0 20 6 -4 13 -13 15 -54 10z"/>
<path d="M8258 4943 c6 -2 18 -2 25 0 6 3 1 5 -13 5 -14 0 -19 -2 -12 -5z"/>
<path d="M8370 4770 c0 -5 5 -10 11 -10 5 0 7 5 4 10 -3 6 -8 10 -11 10 -2 0
-4 -4 -4 -10z"/>
<path d="M9648 4773 c6 -2 18 -2 25 0 6 3 1 5 -13 5 -14 0 -19 -2 -12 -5z"/>
<path d="M1944 4669 c-3 -6 -1 -16 5 -22 9 -9 14 -8 21 3 9 15 4 30 -10 30 -5
0 -12 -5 -16 -11z"/>
<path d="M12670 4629 c0 -10 -1 -22 -2 -26 -5 -12 65 -22 84 -12 21 11 24 38
6 43 -7 3 -30 7 -50 10 -33 4 -38 2 -38 -15z"/>
<path d="M1710 4619 c0 -5 5 -7 10 -4 6 3 10 8 10 11 0 2 -4 4 -10 4 -5 0 -10
-5 -10 -11z"/>
<path d="M1625 4610 c-9 -15 14 -40 36 -40 25 0 24 26 0 40 -24 13 -28 13 -36
0z"/>
<path d="M12496 4611 c-10 -15 12 -51 29 -51 8 0 15 -5 15 -11 0 -6 14 3 30
19 34 34 40 59 13 47 -22 -10 -43 -10 -64 -1 -10 4 -20 3 -23 -3z"/>
<path d="M1848 4570 c-19 -47 -8 -53 21 -11 24 33 27 51 9 51 -7 0 -21 -18
-30 -40z"/>
<path d="M1505 4591 c-7 -12 31 -25 45 -16 6 4 8 11 5 16 -8 12 -42 12 -50 0z"/>
<path d="M2645 4560 c3 -5 11 -10 16 -10 6 0 7 5 4 10 -3 6 -11 10 -16 10 -6
0 -7 -4 -4 -10z"/>
<path d="M2605 4540 c-3 -5 -1 -10 4 -10 6 0 11 5 11 10 0 6 -2 10 -4 10 -3 0
-8 -4 -11 -10z"/>
<path d="M12765 4530 c3 -5 11 -10 16 -10 6 0 7 5 4 10 -3 6 -11 10 -16 10 -6
0 -7 -4 -4 -10z"/>
<path d="M2302 4458 c6 -18 28 -21 28 -4 0 9 -7 16 -16 16 -9 0 -14 -5 -12
-12z"/>
<path d="M1780 4431 c-13 -26 -13 -31 5 -31 9 0 15 9 15 25 0 30 -6 32 -20 6z"/>
<path d="M3070 4410 c0 -14 38 -32 45 -21 3 6 -3 15 -14 20 -24 14 -31 14 -31
1z"/>
<path d="M3175 4409 c-10 -15 1 -23 20 -15 9 3 13 10 10 16 -8 13 -22 13 -30
-1z"/>
<path d="M2430 4370 c0 -13 11 -13 30 0 12 8 11 10 -7 10 -13 0 -23 -4 -23
-10z"/>
<path d="M12645 4360 c-3 -5 -1 -10 4 -10 6 0 11 5 11 10 0 6 -2 10 -4 10 -3
0 -8 -4 -11 -10z"/>
<path d="M2931 4338 c-6 -18 -9 -19 -14 -5 -4 10 -12 17 -18 17 -8 0 -9 -4 0
-13 6 -8 8 -17 5 -20 -3 -3 -3 -10 1 -16 4 -7 15 -5 33 6 15 9 28 18 30 19 1
0 0 9 -4 18 -9 22 -23 20 -33 -6z"/>
<path d="M2845 4290 c-18 -8 -17 -9 7 -9 15 -1 30 4 33 9 7 12 -12 12 -40 0z"/>
<path d="M1416 4254 c-11 -27 -7 -37 9 -24 16 14 20 40 6 40 -5 0 -12 -7 -15
-16z"/>
<path d="M1540 4220 c0 -5 7 -10 16 -10 8 0 12 5 9 10 -3 6 -10 10 -16 10 -5
0 -9 -4 -9 -10z"/>
<path d="M12435 4180 c4 -6 11 -8 16 -5 14 9 11 15 -7 15 -8 0 -12 -5 -9 -10z"/>
<path d="M12740 4180 c0 -5 5 -10 11 -10 5 0 7 5 4 10 -3 6 -8 10 -11 10 -2 0
-4 -4 -4 -10z"/>
<path d="M12762 4011 c2 -7 7 -12 11 -12 12 1 9 15 -3 20 -7 2 -11 -2 -8 -8z"/>
<path d="M12640 3877 c-23 -11 -21 -12 29 -15 57 -3 75 3 51 18 -20 13 -49 11
-80 -3z"/>
<path d="M12758 3473 c7 -3 16 -2 19 1 4 3 -2 6 -13 5 -11 0 -14 -3 -6 -6z"/>
<path d="M12456 3371 c-10 -16 21 -20 41 -6 17 13 16 14 -9 15 -15 0 -29 -4
-32 -9z"/>
<path d="M11955 3229 c-11 -17 1 -21 15 -4 8 9 8 15 2 15 -6 0 -14 -5 -17 -11z"/>
<path d="M11647 3179 c6 -6 32 -11 57 -11 43 -1 58 -13 39 -32 -4 -4 -8 -17
-8 -29 0 -15 -7 -23 -22 -25 -34 -5 -28 -26 17 -56 22 -14 46 -39 55 -55 9
-19 36 -41 75 -60 57 -29 60 -30 60 -11 0 12 -10 25 -25 32 -36 16 -31 36 14
48 50 13 73 38 47 52 -13 7 -15 13 -6 23 12 15 -1 21 -60 27 -19 2 -26 11 -33
43 -12 49 -9 46 -49 51 -121 13 -172 14 -161 3z"/>
<path d="M12260 3120 c0 -5 4 -10 9 -10 6 0 13 5 16 10 3 6 -1 10 -9 10 -9 0
-16 -4 -16 -10z"/>
<path d="M12565 3120 c-3 -5 1 -10 10 -10 9 0 13 5 10 10 -3 6 -8 10 -10 10
-2 0 -7 -4 -10 -10z"/>
<path d="M9653 3052 l-31 -17 24 -29 c25 -28 27 -28 65 -16 48 16 59 29 30 37
-12 3 -21 11 -21 18 0 7 -7 16 -16 19 -19 7 -12 9 -51 -12z"/>
<path d="M9565 2990 c28 -12 55 -12 55 0 0 6 -17 10 -37 9 -31 0 -34 -2 -18
-9z"/>
<path d="M10115 2980 c3 -5 14 -10 23 -10 15 0 15 2 2 10 -20 13 -33 13 -25 0z"/>
<path d="M11555 2959 c-9 -14 -2 -20 14 -10 8 6 9 11 3 15 -6 3 -14 1 -17 -5z"/>
<path d="M10010 2935 c0 -8 -7 -15 -15 -15 -8 0 -15 -3 -15 -8 0 -4 18 -8 40
-8 22 -1 37 3 34 8 -3 5 0 15 6 23 11 13 7 15 -19 15 -21 0 -31 -5 -31 -15z"/>
<path d="M11187 2939 c-23 -14 -12 -29 22 -29 15 0 31 -4 37 -9 12 -11 154
-22 154 -12 0 12 -136 61 -168 61 -15 0 -35 -5 -45 -11z"/>
<path d="M9505 2880 c-10 -17 12 -37 25 -24 8 8 6 15 -4 23 -10 9 -16 9 -21 1z"/>
<path d="M12150 2874 c0 -17 22 -14 28 4 2 7 -3 12 -12 12 -9 0 -16 -7 -16
-16z"/>
<path d="M10005 2870 c-3 -5 -1 -10 4 -10 6 0 11 5 11 10 0 6 -2 10 -4 10 -3
0 -8 -4 -11 -10z"/>
<path d="M11805 2834 c26 -24 26 -26 10 -45 -18 -18 -17 -19 13 -19 21 0 37 8
51 26 12 15 21 30 21 35 0 10 -30 19 -81 24 l-41 5 27 -26z"/>
<path d="M11940 2850 c0 -5 7 -10 15 -10 8 0 15 5 15 10 0 6 -7 10 -15 10 -8
0 -15 -4 -15 -10z"/>
<path d="M11992 2851 c4 -13 18 -16 19 -4 0 4 -5 9 -11 12 -7 2 -11 -2 -8 -8z"/>
<path d="M11715 2841 c-6 -11 9 -23 19 -14 9 9 7 23 -3 23 -6 0 -12 -4 -16 -9z"/>
<path d="M11696 2801 c-4 -7 -5 -15 -2 -18 9 -9 19 4 14 18 -4 11 -6 11 -12 0z"/>
<path d="M12186 2756 c7 -19 48 -22 42 -3 -3 6 -14 13 -26 15 -16 3 -20 -1
-16 -12z"/>
<path d="M9617 2753 c-8 -7 11 -33 24 -33 5 0 9 9 9 20 0 19 -20 27 -33 13z"/>
<path d="M9817 2753 c-11 -11 -8 -48 5 -61 9 -9 7 -12 -10 -12 -26 0 -28 -12
-7 -30 13 -10 23 -10 55 5 38 17 39 19 20 32 -11 8 -20 22 -20 32 0 28 -28 50
-43 34z"/>
<path d="M11723 2742 c4 -16 -2 -27 -20 -39 -22 -14 -34 -15 -92 -6 -91 15
-128 8 -147 -29 -22 -43 -4 -62 53 -54 26 3 55 0 77 -9 19 -8 47 -15 61 -15
28 0 29 -3 15 -30 -8 -15 -6 -24 10 -40 11 -11 27 -20 36 -20 8 0 12 -4 9 -10
-13 -21 35 -9 49 12 20 28 20 33 -1 53 -13 14 -14 18 -2 25 8 5 19 4 26 -2 8
-6 16 -8 20 -4 3 3 14 -1 23 -9 9 -8 30 -17 46 -21 25 -5 32 -2 42 20 6 14 7
28 3 31 -5 3 -11 -2 -15 -10 -3 -8 -15 -15 -27 -15 -21 0 -21 1 -6 18 19 20
13 34 -10 25 -8 -3 -26 6 -41 19 -15 14 -36 28 -46 32 -18 6 -18 8 3 30 l23
24 -34 7 c-18 4 -39 15 -46 24 -12 14 -13 13 -9 -7z"/>
<path d="M1888 2733 c6 -2 18 -2 25 0 6 3 1 5 -13 5 -14 0 -19 -2 -12 -5z"/>
<path d="M10853 2708 c-13 -6 -23 -15 -23 -20 0 -4 10 -8 23 -8 12 0 31 -7 41
-15 11 -8 41 -15 67 -15 38 0 49 -4 54 -19 3 -11 13 -25 22 -33 14 -11 16 -10
11 8 -5 18 0 23 24 28 17 3 40 6 52 6 11 0 28 5 36 10 37 23 -44 48 -175 55
-33 2 -71 5 -85 9 -14 3 -35 0 -47 -6z"/>
<path d="M1694 2629 c-15 -17 -15 -19 -1 -19 22 0 47 11 47 20 0 18 -29 17
-46 -1z"/>
<path d="M11335 2630 c-4 -6 3 -10 14 -10 25 0 27 6 6 13 -8 4 -17 2 -20 -3z"/>
<path d="M10810 2623 c0 -4 12 -16 26 -27 26 -18 26 -18 22 5 -2 16 -11 25
-25 27 -13 2 -23 0 -23 -5z"/>
<path d="M1830 2605 c0 -10 40 -24 54 -19 28 11 17 24 -19 24 -19 0 -35 -2
-35 -5z"/>
<path d="M1670 2580 c0 -5 5 -10 11 -10 5 0 7 5 4 10 -3 6 -8 10 -11 10 -2 0
-4 -4 -4 -10z"/>
<path d="M11018 2526 c-22 -19 -35 -23 -65 -19 -28 4 -43 1 -52 -11 -7 -9 -28
-16 -47 -16 -18 0 -35 -4 -38 -9 -10 -16 23 -33 66 -33 70 -1 75 1 81 22 4 17
14 20 56 20 29 0 68 7 87 15 26 11 41 12 55 5 21 -12 24 -25 9 -35 -16 -10
-12 -23 10 -30 28 -9 15 -25 -21 -25 -17 0 -28 -4 -25 -8 2 -4 23 -6 46 -4 37
4 41 7 36 26 -7 29 5 45 40 55 16 4 29 12 29 17 0 9 -92 24 -148 25 -15 0 -30
6 -34 14 -8 23 -55 17 -85 -9z"/>
<path d="M12065 2541 c-7 -12 12 -24 25 -16 11 7 4 25 -10 25 -5 0 -11 -4 -15
-9z"/>
<path d="M10805 2530 c-3 -5 3 -10 14 -10 11 0 23 5 26 10 3 6 -3 10 -14 10
-11 0 -23 -4 -26 -10z"/>
<path d="M11373 2495 c-40 -17 -42 -31 -5 -40 53 -13 72 -32 67 -69 -5 -41 10
-56 30 -30 12 17 12 21 -3 32 -16 12 -16 14 2 27 16 13 22 12 44 -5 15 -13 40
-20 65 -20 l40 0 -22 -24 -22 -23 42 -6 c68 -9 106 1 114 32 4 14 12 30 18 34
7 5 -2 6 -20 3 -18 -3 -51 1 -73 9 -22 8 -46 12 -53 9 -7 -2 -30 2 -52 9 -28
10 -40 20 -41 34 -1 11 -4 25 -8 32 -10 15 -84 13 -123 -4z"/>
<path d="M10030 2488 c-23 -11 -20 -12 35 -18 68 -7 78 -4 51 16 -23 17 -51
17 -86 2z"/>
<path d="M11605 2490 c3 -5 8 -10 11 -10 2 0 4 5 4 10 0 6 -5 10 -11 10 -5 0
-7 -4 -4 -10z"/>
<path d="M1908 2483 c6 -2 18 -2 25 0 6 3 1 5 -13 5 -14 0 -19 -2 -12 -5z"/>
<path d="M11650 2480 c0 -5 5 -10 10 -10 6 0 10 5 10 10 0 6 -4 10 -10 10 -5
0 -10 -4 -10 -10z"/>
<path d="M2206 2465 c-4 -13 -2 -14 14 -5 23 13 26 20 6 20 -8 0 -16 -7 -20
-15z"/>
<path d="M10787 2416 c-4 -10 -5 -21 -2 -24 9 -9 17 6 13 25 -3 17 -4 17 -11
-1z"/>
<path d="M12030 2399 c-8 -5 -28 -14 -44 -19 -23 -9 -26 -13 -16 -25 7 -8 25
-15 41 -15 22 0 30 6 35 25 8 32 2 45 -16 34z"/>
<path d="M4518 2373 c7 -3 16 -2 19 1 4 3 -2 6 -13 5 -11 0 -14 -3 -6 -6z"/>
<path d="M9862 2373 c-7 -2 -17 -13 -22 -23 -9 -18 -8 -18 20 -9 16 6 30 17
30 25 0 14 -6 16 -28 7z"/>
<path d="M9990 2370 c0 -5 5 -10 10 -10 6 0 10 5 10 10 0 6 -4 10 -10 10 -5 0
-10 -4 -10 -10z"/>
<path d="M2225 2319 c-12 -19 5 -23 22 -6 16 16 16 17 1 17 -9 0 -20 -5 -23
-11z"/>
<path d="M9945 2308 c10 -34 20 -41 45 -33 22 7 22 7 -6 31 -37 30 -47 30 -39
2z"/>
<path d="M11516 2321 c-12 -18 81 -70 103 -57 5 4 12 2 15 -3 4 -5 -12 -12
-35 -16 -37 -6 -44 -4 -75 26 -18 18 -37 29 -41 25 -5 -4 0 -14 10 -21 12 -8
14 -15 8 -20 -6 -3 -11 -14 -11 -24 0 -26 55 -36 83 -16 24 17 41 20 33 6 -3
-5 1 -14 9 -21 22 -18 19 -25 -12 -26 -44 -3 -68 -11 -65 -23 1 -6 -2 -11 -8
-11 -5 0 -10 -4 -10 -10 0 -5 9 -10 19 -10 23 0 34 -23 18 -39 -8 -8 -8 -11 1
-11 17 0 54 39 47 50 -10 16 13 21 64 14 37 -5 51 -11 54 -25 4 -14 14 -19 41
-19 40 0 56 20 36 45 -10 12 -10 18 0 30 17 20 33 19 53 -3 23 -26 21 -49 -5
-56 -17 -4 -20 -8 -11 -17 6 -6 9 -18 6 -25 -3 -9 2 -14 16 -14 12 0 24 -6 27
-14 11 -28 48 -2 55 38 6 34 5 36 -20 34 -20 -2 -27 2 -29 20 -2 15 2 22 13
22 12 0 14 4 5 20 -6 10 -9 25 -8 32 2 9 -8 13 -29 12 -23 -1 -33 3 -36 17 -4
13 -14 19 -35 19 -25 0 -31 5 -37 28 -3 17 -13 29 -23 30 -36 2 -72 -10 -72
-24 0 -21 -18 -17 -30 6 -13 24 -32 27 -23 4 5 -15 3 -15 -26 0 -17 9 -31 21
-31 26 0 12 -37 13 -44 1z"/>
<path d="M9650 2301 c-15 -4 -26 -15 -28 -28 -3 -17 6 -24 46 -37 55 -19 92
-14 117 14 15 17 14 19 -11 39 -27 21 -74 26 -124 12z"/>
<path d="M9847 2304 c-4 -4 -7 -13 -7 -21 0 -15 56 -18 65 -3 3 6 -2 10 -12
10 -11 0 -24 5 -29 10 -6 6 -13 7 -17 4z"/>
<path d="M4270 2283 c8 -3 25 -15 37 -26 28 -25 38 -19 17 11 -9 14 -25 22
-42 21 -15 0 -21 -3 -12 -6z"/>
<path d="M10680 2281 c0 -9 41 -33 47 -27 3 2 2 9 -1 14 -7 12 -46 23 -46 13z"/>
<path d="M12060 2280 c0 -14 58 -42 78 -38 12 2 7 9 -19 26 -39 24 -59 28 -59
12z"/>
<path d="M4385 2259 c-11 -17 1 -21 15 -4 8 9 8 15 2 15 -6 0 -14 -5 -17 -11z"/>
<path d="M10320 2245 c-8 -9 -8 -15 -2 -15 12 0 26 19 19 26 -2 2 -10 -2 -17
-11z"/>
<path d="M4490 2230 c-8 -5 -12 -12 -9 -15 8 -8 39 5 39 16 0 11 -11 11 -30
-1z"/>
<path d="M1975 2220 c3 -5 8 -10 11 -10 2 0 4 5 4 10 0 6 -5 10 -11 10 -5 0
-7 -4 -4 -10z"/>
<path d="M10341 2210 c-13 -11 -19 -20 -15 -20 5 0 2 -5 -6 -10 -10 -6 -20 -4
-32 6 -9 9 -22 13 -27 9 -16 -9 -13 -25 3 -25 8 0 27 -11 42 -25 36 -33 51
-32 134 12 l71 38 42 -23 c50 -27 76 -30 57 -7 -7 8 -21 15 -31 15 -9 0 -25 8
-34 17 -11 10 -36 17 -69 18 -28 1 -64 5 -81 8 -22 5 -36 1 -54 -13z"/>
<path d="M10675 2210 c-19 -8 -8 -10 60 -10 3 0 5 3 5 8 1 11 -42 12 -65 2z"/>
<path d="M11166 2205 c-6 -16 3 -19 28 -9 9 3 13 10 10 15 -8 14 -31 11 -38
-6z"/>
<path d="M4538 2170 c-15 -11 -40 -20 -56 -20 -32 0 -92 -39 -60 -40 9 0 29 5
42 12 21 9 29 8 45 -6 18 -16 21 -16 60 1 25 11 39 23 36 30 -2 7 2 13 10 13
8 0 15 5 15 10 0 6 -9 10 -19 10 -11 0 -26 2 -33 5 -8 3 -26 -3 -40 -15z"/>
<path d="M10987 2173 c18 -9 36 -13 40 -10 9 10 2 14 -37 21 l-35 6 32 -17z"/>
<path d="M2818 2168 c9 -9 15 -9 24 0 9 9 7 12 -12 12 -19 0 -21 -3 -12 -12z"/>
<path d="M10795 2170 c-19 -8 -19 -9 3 -9 12 -1 22 4 22 9 0 6 -1 10 -2 9 -2
0 -12 -4 -23 -9z"/>
<path d="M2220 2160 c0 -5 5 -10 10 -10 6 0 10 5 10 10 0 6 -4 10 -10 10 -5 0
-10 -4 -10 -10z"/>
<path d="M11170 2163 c0 -10 100 -26 109 -18 8 9 -4 14 -57 21 -32 4 -52 3
-52 -3z"/>
<path d="M10030 2143 c0 -13 29 -38 35 -31 3 3 -4 13 -15 23 -11 10 -20 13
-20 8z"/>
<path d="M10680 2135 c7 -8 19 -15 27 -15 13 0 13 3 3 15 -7 8 -19 15 -27 15
-13 0 -13 -3 -3 -15z"/>
<path d="M11437 2135 c-5 -10 0 -15 14 -15 12 0 19 5 17 12 -6 18 -25 20 -31
3z"/>
<path d="M9600 2125 c-8 -9 -8 -15 -2 -15 12 0 26 19 19 26 -2 2 -10 -2 -17
-11z"/>
<path d="M2815 2110 c19 -21 35 -18 35 6 0 9 -10 14 -27 14 -25 0 -26 -1 -8
-20z"/>
<path d="M4275 2095 c0 -23 3 -25 30 -19 38 8 57 24 28 24 -12 0 -25 5 -28 10
-12 19 -30 10 -30 -15z"/>
<path d="M4860 2089 c0 -5 5 -7 10 -4 6 3 10 8 10 11 0 2 -4 4 -10 4 -5 0 -10
-5 -10 -11z"/>
<path d="M4925 2090 c3 -5 13 -10 21 -10 8 0 14 -10 14 -25 0 -14 6 -25 14
-25 16 0 10 51 -8 62 -16 11 -48 10 -41 -2z"/>
<path d="M2618 2073 c7 -3 16 -2 19 1 4 3 -2 6 -13 5 -11 0 -14 -3 -6 -6z"/>
<path d="M9395 2070 c-3 -5 1 -10 9 -10 9 0 16 5 16 10 0 6 -4 10 -9 10 -6 0
-13 -4 -16 -10z"/>
<path d="M5120 2060 c-13 -8 -13 -10 2 -10 9 0 20 5 23 10 8 13 -5 13 -25 0z"/>
<path d="M10490 2060 c0 -5 4 -10 9 -10 6 0 13 5 16 10 3 6 -1 10 -9 10 -9 0
-16 -4 -16 -10z"/>
<path d="M5250 2040 c0 -11 5 -20 10 -20 6 0 10 9 10 20 0 11 -4 20 -10 20 -5
0 -10 -9 -10 -20z"/>
<path d="M4750 2036 c6 -8 10 -25 8 -38 -3 -20 2 -23 31 -26 30 -3 33 -1 23
11 -14 17 2 27 44 27 13 0 24 5 24 10 0 6 -11 10 -24 10 -14 0 -28 5 -31 10
-3 6 -24 10 -47 10 -34 0 -39 -2 -28 -14z"/>
<path d="M12115 2040 c-19 -7 -19 -7 0 -18 20 -12 20 -12 0 -27 -36 -26 -45
-36 -45 -47 0 -6 7 -4 18 5 9 8 31 17 49 19 l32 3 -17 36 c-14 29 -21 35 -37
29z"/>
<path d="M9340 2025 c-7 -9 -10 -18 -7 -21 6 -7 47 18 47 28 0 14 -27 9 -40
-7z"/>
<path d="M3690 2021 c0 -18 18 -21 30 -6 10 13 9 15 -9 15 -11 0 -21 -4 -21
-9z"/>
<path d="M9430 2020 c0 -5 7 -10 15 -10 8 0 15 5 15 10 0 6 -7 10 -15 10 -8 0
-15 -4 -15 -10z"/>
<path d="M2185 2000 c3 -5 8 -10 11 -10 2 0 4 5 4 10 0 6 -5 10 -11 10 -5 0
-7 -4 -4 -10z"/>
<path d="M2963 2003 c9 -2 25 -2 35 0 9 3 1 5 -18 5 -19 0 -27 -2 -17 -5z"/>
<path d="M11827 1991 c3 -10 0 -22 -6 -25 -14 -9 -15 -66 -1 -66 21 0 42 73
27 98 -12 19 -26 14 -20 -7z"/>
<path d="M3975 1989 c-4 -6 -3 -15 3 -21 6 -6 11 -4 15 6 7 18 -9 31 -18 15z"/>
<path d="M4975 1989 c-4 -5 1 -19 11 -30 16 -18 16 -19 -4 -19 -31 0 -28 -30
3 -31 14 -1 31 -2 38 -3 16 -1 10 36 -9 50 -8 6 -12 19 -8 28 7 18 -20 23 -31
5z"/>
<path d="M5196 1988 c-9 -5 -21 -6 -27 -2 -8 4 -8 0 0 -15 7 -13 21 -21 38
-21 14 0 31 -8 38 -17 9 -12 28 -17 69 -18 31 0 56 3 56 7 0 5 -16 8 -35 8
-38 0 -59 25 -34 40 7 5 11 11 9 13 -11 10 -99 14 -114 5z"/>
<path d="M4869 1985 c-1 -3 -2 -8 -3 -12 -5 -26 -20 -34 -52 -28 -30 5 -35 3
-44 -20 -14 -36 -13 -37 10 -25 17 9 22 7 32 -17 17 -38 18 -39 29 -23 8 11
12 12 16 3 9 -24 28 -13 39 21 13 42 7 93 -12 100 -8 3 -15 3 -15 1z"/>
<path d="M9335 1980 c-3 -5 -2 -10 4 -10 5 0 13 5 16 10 3 6 2 10 -4 10 -5 0
-13 -4 -16 -10z"/>
<path d="M9745 1980 c-3 -5 0 -19 9 -31 l14 -21 12 22 c10 18 9 24 -1 31 -18
11 -26 11 -34 -1z"/>
<path d="M4555 1970 c3 -5 13 -10 21 -10 8 0 12 5 9 10 -3 6 -13 10 -21 10 -8
0 -12 -4 -9 -10z"/>
<path d="M10490 1969 c0 -5 5 -7 10 -4 6 3 10 8 10 11 0 2 -4 4 -10 4 -5 0
-10 -5 -10 -11z"/>
<path d="M3920 1959 c0 -5 5 -7 10 -4 6 3 10 8 10 11 0 2 -4 4 -10 4 -5 0 -10
-5 -10 -11z"/>
<path d="M3432 1948 c5 -15 28 -18 29 -3 0 6 -7 12 -17 13 -10 3 -15 -1 -12
-10z"/>
<path d="M9801 1946 c-8 -10 -9 -16 -1 -21 13 -8 30 3 30 21 0 18 -14 18 -29
0z"/>
<path d="M3523 1936 c18 -14 18 -15 0 -24 -10 -6 -14 -14 -10 -18 4 -4 21 0
36 9 16 9 37 17 46 17 14 0 15 3 5 15 -7 9 -29 15 -54 15 -37 -1 -39 -2 -23
-14z"/>
<path d="M9395 1930 c-19 -8 -19 -9 3 -9 12 -1 22 4 22 9 0 6 -1 10 -2 9 -2 0
-12 -4 -23 -9z"/>
<path d="M9481 1931 c-9 -6 -10 -11 -2 -15 13 -8 31 1 31 15 0 11 -11 11 -29
0z"/>
<path d="M3345 1920 c-3 -4 6 -10 20 -12 14 -3 25 -2 25 2 0 11 -39 20 -45 10z"/>
<path d="M5090 1905 c0 -18 41 -37 54 -24 13 11 -12 39 -35 39 -11 0 -19 -7
-19 -15z"/>
<path d="M9540 1910 c0 -5 9 -10 21 -10 11 0 17 5 14 10 -3 6 -13 10 -21 10
-8 0 -14 -4 -14 -10z"/>
<path d="M9840 1905 c0 -8 -6 -15 -12 -15 -7 -1 3 -9 22 -18 34 -17 35 -17 43
1 5 14 2 24 -10 33 -24 18 -43 17 -43 -1z"/>
<path d="M5316 1892 c-3 -6 9 -12 27 -15 17 -3 41 -7 52 -9 13 -2 20 3 20 12
0 11 -13 16 -47 18 -25 2 -49 -1 -52 -6z"/>
<path d="M5468 1893 c-30 -8 -21 -30 12 -29 21 1 30 6 30 19 0 17 -9 19 -42
10z"/>
<path d="M4617 1884 c-12 -13 4 -24 34 -24 20 0 29 4 27 13 -5 13 -50 22 -61
11z"/>
<path d="M5272 1850 c16 -25 46 -36 61 -21 8 8 8 11 -1 11 -7 0 -12 7 -12 15
0 10 -10 15 -30 15 -28 0 -29 -2 -18 -20z"/>
<path d="M4226 1845 c-22 -22 -20 -34 4 -28 25 7 35 22 22 35 -6 6 -15 4 -26
-7z"/>
<path d="M5010 1838 c0 -17 32 -20 63 -6 l31 15 -47 0 c-26 0 -47 -4 -47 -9z"/>
<path d="M4573 1818 c-18 -6 -33 -14 -33 -17 0 -13 69 1 74 15 6 16 3 16 -41
2z"/>
<path d="M11890 1816 c0 -3 4 -16 10 -30 13 -35 30 -33 30 4 0 23 -4 30 -20
30 -11 0 -20 -2 -20 -4z"/>
<path d="M2400 1785 l-35 -13 29 -7 c30 -8 57 2 64 23 5 15 -12 14 -58 -3z"/>
<path d="M4760 1790 c0 -5 4 -10 9 -10 6 0 13 5 16 10 3 6 -1 10 -9 10 -9 0
-16 -4 -16 -10z"/>
<path d="M9843 1778 c-46 -20 -54 -33 -25 -40 17 -5 82 47 71 56 -2 1 -23 -5
-46 -16z"/>
<path d="M5000 1781 c0 -6 5 -13 10 -16 6 -3 10 1 10 9 0 9 -4 16 -10 16 -5 0
-10 -4 -10 -9z"/>
<path d="M4620 1760 c0 -5 5 -10 11 -10 5 0 7 5 4 10 -3 6 -8 10 -11 10 -2 0
-4 -4 -4 -10z"/>
<path d="M5158 1760 c12 -5 22 -14 22 -20 0 -5 14 -10 30 -10 17 0 30 4 30 8
0 13 -48 32 -78 31 -26 0 -26 -1 -4 -9z"/>
<path d="M2912 1744 c3 -17 21 -21 26 -6 1 5 -4 12 -13 16 -11 4 -15 1 -13
-10z"/>
<path d="M9725 1750 c-19 -8 -19 -9 3 -9 12 -1 22 4 22 9 0 6 -1 10 -2 9 -2 0
-12 -4 -23 -9z"/>
<path d="M2313 1744 c-7 -3 -9 -12 -6 -20 3 -9 -2 -14 -16 -14 -12 0 -21 -4
-21 -9 0 -5 -9 -11 -20 -14 -11 -3 -20 -10 -20 -17 0 -6 8 -9 18 -6 54 16 91
17 119 3 27 -14 29 -14 30 3 1 12 -8 20 -28 24 -21 4 -28 10 -22 18 20 32 4
47 -34 32z"/>
<path d="M3518 1743 c7 -3 16 -2 19 1 4 3 -2 6 -13 5 -11 0 -14 -3 -6 -6z"/>
<path d="M4015 1740 c-3 -5 -1 -10 4 -10 6 0 11 5 11 10 0 6 -2 10 -4 10 -3 0
-8 -4 -11 -10z"/>
<path d="M2640 1722 c-19 -9 -38 -22 -42 -28 -4 -6 -16 -21 -26 -34 -18 -22
-20 -22 -42 -7 -21 14 -25 14 -66 -9 -30 -17 -52 -22 -69 -18 -19 5 -25 2 -25
-11 0 -11 6 -15 18 -11 10 4 27 -1 38 -9 25 -19 34 -19 34 1 0 9 6 14 13 11 6
-2 11 -15 9 -30 -4 -33 31 -47 57 -23 10 9 25 14 34 11 8 -4 18 -2 21 4 5 7
15 7 32 -1 21 -10 28 -8 46 10 l21 21 -21 50 -21 51 35 0 c38 0 41 4 20 26
-18 17 -22 17 -66 -4z"/>
<path d="M5134 1715 c-10 -8 -27 -15 -36 -15 -20 0 -22 -8 -8 -30 7 -11 10
-11 10 -2 0 7 18 21 40 31 22 10 37 21 33 24 -10 10 -17 9 -39 -8z"/>
<path d="M5260 1720 c0 -6 7 -10 15 -10 8 0 15 2 15 4 0 2 -7 6 -15 10 -8 3
-15 1 -15 -4z"/>
<path d="M6165 1720 c3 -5 8 -10 11 -10 2 0 4 5 4 10 0 6 -5 10 -11 10 -5 0
-7 -4 -4 -10z"/>
<path d="M6190 1705 c-13 -14 -19 -25 -13 -25 12 0 48 38 41 45 -2 3 -15 -6
-28 -20z"/>
<path d="M5030 1710 c0 -5 5 -10 11 -10 5 0 7 5 4 10 -3 6 -8 10 -11 10 -2 0
-4 -4 -4 -10z"/>
<path d="M9700 1706 c0 -9 7 -16 16 -16 17 0 14 22 -4 28 -7 2 -12 -3 -12 -12z"/>
<path d="M9856 1681 l-27 -39 -97 -7 c-74 -5 -101 -11 -114 -25 -16 -17 -16
-18 3 -23 10 -3 19 -12 19 -21 0 -19 -11 -21 -27 -5 -9 9 -23 9 -55 0 -24 -7
-48 -11 -53 -9 -6 2 -20 -7 -33 -20 -19 -19 -20 -23 -7 -28 8 -4 22 -1 30 6 8
7 22 9 31 6 11 -4 15 -2 11 8 -11 27 62 37 83 11 18 -21 40 -19 40 5 0 15 7
20 25 20 15 0 24 -5 23 -12 -2 -8 6 -12 17 -11 11 1 23 -3 26 -9 4 -7 13 -7
25 0 11 5 33 7 51 5 39 -6 93 30 93 63 0 13 5 26 10 29 15 9 12 25 -4 25 -9 0
-16 12 -18 32 -4 45 -21 45 -52 -1z"/>
<path d="M6237 1703 c-12 -11 -7 -21 13 -26 11 -3 20 -2 20 3 0 12 -26 31 -33
23z"/>
<path d="M6070 1690 c0 -5 5 -10 10 -10 6 0 10 5 10 10 0 6 -4 10 -10 10 -5 0
-10 -4 -10 -10z"/>
<path d="M6170 1649 c0 -5 5 -7 10 -4 6 3 10 8 10 11 0 2 -4 4 -10 4 -5 0 -10
-5 -10 -11z"/>
<path d="M4635 1625 c-17 -14 -18 -17 -5 -25 8 -5 22 -9 30 -9 10 0 11 2 3 6
-22 8 -14 22 11 20 14 -1 25 3 26 8 1 16 -43 16 -65 0z"/>
<path d="M5938 1633 c7 -3 16 -2 19 1 4 3 -2 6 -13 5 -11 0 -14 -3 -6 -6z"/>
<path d="M6057 1623 c-11 -10 -8 -41 4 -49 6 -3 14 -2 18 3 3 5 15 13 26 17
19 7 19 8 -5 21 -29 16 -34 17 -43 8z"/>
<path d="M9238 1623 c7 -3 16 -2 19 1 4 3 -2 6 -13 5 -11 0 -14 -3 -6 -6z"/>
<path d="M4803 1603 c-7 -2 -13 -8 -13 -12 0 -11 49 -1 56 10 5 9 -22 11 -43
2z"/>
<path d="M6269 1601 c7 -5 10 -14 7 -20 -12 -18 19 -23 80 -12 64 12 69 15 59
31 -5 9 -10 9 -18 1 -14 -14 -40 -15 -32 -1 10 16 -7 12 -27 -7 -17 -15 -19
-15 -36 0 -10 10 -25 17 -33 17 -12 0 -12 -2 0 -9z"/>
<path d="M2743 1579 c-10 -5 8 -8 45 -8 37 -1 61 3 57 8 -6 11 -74 11 -102 0z"/>
<path d="M3475 1580 c3 -5 8 -10 11 -10 2 0 4 5 4 10 0 6 -5 10 -11 10 -5 0
-7 -4 -4 -10z"/>
<path d="M3990 1580 c0 -5 5 -10 11 -10 5 0 7 5 4 10 -3 6 -8 10 -11 10 -2 0
-4 -4 -4 -10z"/>
<path d="M5185 1580 c3 -5 16 -10 28 -9 21 0 21 1 2 9 -28 12 -37 12 -30 0z"/>
<path d="M3830 1564 c44 -19 48 -23 30 -34 -11 -7 -6 -10 18 -10 31 0 77 -32
64 -45 -9 -9 19 -25 43 -24 11 0 14 3 8 6 -7 2 -13 9 -13 14 0 16 23 10 47
-13 13 -12 26 -18 30 -13 5 4 2 10 -4 12 -8 3 -11 14 -8 26 5 19 -5 28 -64 60
-59 31 -80 37 -128 37 l-58 -1 35 -15z"/>
<path d="M5350 1576 c0 -2 14 -6 30 -8 17 -3 30 -1 30 4 0 4 -13 8 -30 8 -16
0 -30 -2 -30 -4z"/>
<path d="M3525 1560 c3 -5 10 -10 16 -10 5 0 9 5 9 10 0 6 -7 10 -16 10 -8 0
-12 -4 -9 -10z"/>
<path d="M4372 1563 c-19 -8 -3 -23 25 -23 21 0 24 2 13 15 -13 16 -17 17 -38
8z"/>
<path d="M4636 1551 c-9 -14 4 -41 20 -41 7 0 26 11 41 25 l28 24 -42 1 c-23
0 -44 -4 -47 -9z"/>
<path d="M5115 1546 c-18 -14 -18 -15 -2 -16 9 0 26 -9 38 -21 26 -26 102 -24
107 3 4 21 -20 34 -78 42 -33 5 -51 2 -65 -8z"/>
<path d="M9297 1534 c-3 -4 -35 -12 -69 -18 -44 -8 -64 -16 -66 -27 -2 -14 10
-17 79 -21 87 -5 129 -1 129 13 0 5 -10 9 -22 9 -13 0 -34 3 -46 7 -45 11 0
23 66 16 39 -3 62 -2 62 4 0 17 -118 31 -133 17z"/>
<path d="M4343 1485 c5 -14 57 -19 69 -7 6 6 -5 11 -31 14 -25 2 -40 0 -38 -7z"/>
<path d="M2435 1480 c-3 -5 -2 -10 4 -10 5 0 13 5 16 10 3 6 2 10 -4 10 -5 0
-13 -4 -16 -10z"/>
<path d="M3727 1483 c-8 -8 31 -36 53 -38 23 -2 132 -34 156 -46 25 -13 81 -8
74 6 -3 5 -16 10 -30 11 -14 1 -46 11 -71 23 -26 12 -50 21 -55 20 -16 -5 -94
13 -100 22 -6 11 -18 12 -27 2z"/>
<path d="M5891 1451 c-7 -5 -10 -14 -6 -20 5 -9 10 -9 21 0 26 22 14 38 -15
20z"/>
<path d="M9148 1453 c-23 -6 -23 -16 0 -36 28 -26 59 -22 64 8 3 13 3 27 0 30
-6 6 -39 5 -64 -2z"/>
<path d="M4382 1431 c-18 -3 -33 -10 -33 -16 0 -19 48 -16 72 4 25 22 20 23
-39 12z"/>
<path d="M5845 1430 c3 -5 8 -10 11 -10 2 0 4 5 4 10 0 6 -5 10 -11 10 -5 0
-7 -4 -4 -10z"/>
<path d="M5160 1414 c0 -8 5 -12 10 -9 6 3 10 10 10 16 0 5 -4 9 -10 9 -5 0
-10 -7 -10 -16z"/>
<path d="M5935 1420 c-3 -5 1 -10 10 -10 9 0 13 5 10 10 -3 6 -8 10 -10 10 -2
0 -7 -4 -10 -10z"/>
<path d="M4319 1379 c12 -12 24 -19 27 -16 7 6 -25 37 -39 37 -6 0 -1 -9 12
-21z"/>
<path d="M4035 1380 c4 -6 11 -8 16 -5 14 9 11 15 -7 15 -8 0 -12 -5 -9 -10z"/>
<path d="M4652 1358 c5 -15 58 -24 58 -10 0 5 -10 12 -22 16 -34 9 -40 7 -36
-6z"/>
<path d="M5501 1361 c-12 -8 -10 -12 10 -21 27 -12 79 1 79 20 0 13 -17 13
-25 0 -4 -7 -12 -7 -25 0 -22 12 -21 12 -39 1z"/>
<path d="M4810 1308 c0 -4 9 -8 20 -8 11 0 20 4 20 9 0 6 -9 9 -20 8 -11 -1
-20 -5 -20 -9z"/>
<path d="M6852 1308 c6 -18 28 -21 28 -4 0 9 -7 16 -16 16 -9 0 -14 -5 -12
-12z"/>
<path d="M7175 1260 c3 -5 8 -10 11 -10 2 0 4 5 4 10 0 6 -5 10 -11 10 -5 0
-7 -4 -4 -10z"/>
<path d="M4476 1252 c-4 -7 -4 -21 -1 -32 5 -17 2 -20 -26 -20 -31 0 -32 -1
-17 -17 19 -18 90 -24 98 -8 3 6 -5 11 -17 13 -13 2 -20 9 -17 16 7 18 -11 62
-20 48z"/>
<path d="M7350 1250 c0 -5 5 -10 11 -10 5 0 7 5 4 10 -3 6 -8 10 -11 10 -2 0
-4 -4 -4 -10z"/>
<path d="M4879 1220 c-13 -10 -19 -19 -12 -20 18 0 63 22 63 32 0 14 -27 9
-51 -12z"/>
<path d="M5525 1232 c-11 -2 -25 -8 -31 -13 -5 -4 -21 -6 -35 -3 -23 5 -23 5
-5 -10 22 -18 46 -21 46 -6 0 6 9 10 19 10 11 0 23 5 26 11 9 14 4 16 -20 11z"/>
<path d="M6989 1227 c15 -9 20 -17 13 -21 -8 -4 -5 -13 8 -26 24 -24 34 -26
26 -4 -6 15 0 16 44 10 50 -7 57 -3 41 23 -5 8 -16 11 -27 7 -9 -4 -21 -2 -24
5 -4 6 -29 13 -56 16 -46 4 -48 3 -25 -10z"/>
<path d="M1702 1223 c-6 -2 -10 -9 -6 -14 7 -12 124 -12 124 0 0 17 -85 28
-118 14z"/>
<path d="M7430 1200 c0 -5 7 -10 15 -10 8 0 15 5 15 10 0 6 -7 10 -15 10 -8 0
-15 -4 -15 -10z"/>
<path d="M4690 1169 c0 -6 9 -13 20 -16 40 -11 20 -25 -25 -19 -25 4 -45 5
-45 2 0 -15 89 -49 121 -47 41 2 141 -32 178 -60 13 -11 33 -19 45 -19 11 0
47 -20 78 -45 64 -50 80 -54 101 -25 12 18 16 18 33 5 21 -16 44 -19 44 -6 0
5 -10 11 -22 14 -21 6 -21 7 -5 25 21 23 13 32 -27 32 -17 0 -49 11 -70 24
-22 13 -46 22 -53 19 -7 -3 -13 0 -13 6 0 6 -18 14 -40 17 -32 5 -39 10 -35
24 4 12 -5 21 -32 34 -79 35 -253 59 -253 35z"/>
<path d="M7310 1152 c0 -6 6 -13 13 -16 8 -4 5 -10 -10 -22 -25 -18 -31 -44
-9 -44 7 0 35 -9 61 -21 34 -15 50 -18 58 -10 6 6 9 11 7 11 -3 0 -23 6 -44
14 l-40 14 58 12 58 12 -28 17 c-16 10 -40 20 -54 24 -14 3 -35 9 -47 12 -14
4 -23 3 -23 -3z"/>
<path d="M7188 1113 c-24 -6 -23 -23 2 -23 11 0 20 7 20 15 0 8 -1 14 -2 14
-2 -1 -11 -3 -20 -6z"/>
<path d="M8420 1100 c0 -5 7 -10 15 -10 8 0 15 5 15 10 0 6 -7 10 -15 10 -8 0
-15 -4 -15 -10z"/>
<path d="M5410 1075 c-7 -8 -8 -15 -2 -15 5 0 15 7 22 15 7 8 8 15 2 15 -5 0
-15 -7 -22 -15z"/>
<path d="M7245 1060 c3 -5 11 -10 16 -10 6 0 7 5 4 10 -3 6 -11 10 -16 10 -6
0 -7 -4 -4 -10z"/>
<path d="M5480 1050 c0 -5 5 -10 10 -10 6 0 10 5 10 10 0 6 -4 10 -10 10 -5 0
-10 -4 -10 -10z"/>
<path d="M8585 1050 c-3 -5 -2 -10 4 -10 5 0 13 5 16 10 3 6 2 10 -4 10 -5 0
-13 -4 -16 -10z"/>
<path d="M8685 1040 c-3 -5 -1 -10 4 -10 6 0 11 5 11 10 0 6 -2 10 -4 10 -3 0
-8 -4 -11 -10z"/>
<path d="M8496 1027 c-17 -13 -16 -14 12 -14 21 0 29 4 25 14 -3 7 -8 13 -12
13 -4 0 -15 -6 -25 -13z"/>
<path d="M7770 981 c0 -5 18 -11 40 -13 47 -4 54 7 9 16 -42 8 -49 8 -49 -3z"/>
<path d="M5250 960 c0 -11 4 -20 9 -20 13 0 32 26 24 33 -13 14 -33 6 -33 -13z"/>
<path d="M8134 927 c-13 -35 22 -48 71 -25 33 15 32 28 -4 28 -16 0 -36 3 -45
6 -9 4 -18 0 -22 -9z"/>
<path d="M5320 895 c0 -16 9 -29 27 -39 26 -13 29 -12 50 11 13 13 23 26 23
29 0 2 -15 4 -34 4 -19 0 -38 5 -41 10 -11 18 -25 10 -25 -15z"/>
<path d="M7865 910 c3 -5 10 -10 16 -10 5 0 9 5 9 10 0 6 -7 10 -16 10 -8 0
-12 -4 -9 -10z"/>
<path d="M5795 880 c-3 -5 -1 -10 4 -10 6 0 11 5 11 10 0 6 -2 10 -4 10 -3 0
-8 -4 -11 -10z"/>
<path d="M7830 850 c0 -5 5 -10 11 -10 5 0 7 5 4 10 -3 6 -8 10 -11 10 -2 0
-4 -4 -4 -10z"/>
<path d="M7880 830 c0 -5 9 -10 21 -10 11 0 17 5 14 10 -3 6 -13 10 -21 10 -8
0 -14 -4 -14 -10z"/>
<path d="M7947 824 c-13 -13 5 -24 39 -24 19 0 34 4 34 10 0 5 -6 7 -14 4 -8
-3 -17 -1 -21 5 -7 12 -28 15 -38 5z"/>
<path d="M8640 689 c0 -5 5 -7 10 -4 6 3 10 8 10 11 0 2 -4 4 -10 4 -5 0 -10
-5 -10 -11z"/>
<path d="M5965 610 c3 -5 8 -10 11 -10 2 0 4 5 4 10 0 6 -5 10 -11 10 -5 0 -7
-4 -4 -10z"/>
<path d="M6230 570 c0 -5 5 -10 11 -10 5 0 7 5 4 10 -3 6 -8 10 -11 10 -2 0
-4 -4 -4 -10z"/>
<path d="M6615 560 c3 -5 8 -10 11 -10 2 0 4 5 4 10 0 6 -5 10 -11 10 -5 0 -7
-4 -4 -10z"/>
<path d="M6610 379 c0 -5 5 -7 10 -4 6 3 10 8 10 11 0 2 -4 4 -10 4 -5 0 -10
-5 -10 -11z"/>
<path d="M7045 160 c-3 -5 -1 -10 4 -10 6 0 11 5 11 10 0 6 -2 10 -4 10 -3 0
-8 -4 -11 -10z"/>
<path d="M8135 80 c-11 -5 -36 -6 -55 -4 -33 5 -34 4 -16 -10 25 -20 102 -21
146 -2 25 10 29 14 15 20 -22 8 -65 7 -90 -4z"/>
<path d="M7995 50 c-3 -5 -1 -10 4 -10 6 0 11 5 11 10 0 6 -2 10 -4 10 -3 0
-8 -4 -11 -10z"/>
</g>
</svg>
